<svg width="48" height="48" viewBox="0 0 48 48" fill="none" xmlns="http://www.w3.org/2000/svg">
<circle cx="24" cy="12" r="8" fill="#E67205"/>
<path fill-rule="evenodd" clip-rule="evenodd" d="M33 44C29.7002 44 28.0503 44 27.0251 42.9749C26 41.9497 26 40.2998 26 37C26 33.7002 26 32.0503 27.0251 31.0251C28.0503 30 29.7002 30 33 30C36.2998 30 37.9497 30 38.9749 31.0251C40 32.0503 40 33.7002 40 37C40 40.2998 40 41.9497 38.9749 42.9749C37.9497 44 36.2998 44 33 44ZM36.9361 35.4916C37.3917 35.036 37.3917 34.2973 36.9361 33.8417C36.4805 33.3861 35.7418 33.3861 35.2862 33.8417L31.4444 37.6834L30.7138 36.9528C30.2582 36.4972 29.5195 36.4972 29.0639 36.9528C28.6083 37.4084 28.6083 38.1471 29.0639 38.6027L30.6195 40.1583C31.0751 40.6139 31.8138 40.6139 32.2694 40.1583L36.9361 35.4916Z" fill="#E67205"/>
<path d="M30.8295 27.0148C28.8093 26.3685 26.4799 26 24 26C16.268 26 10 29.5817 10 34C10 38.2811 15.8849 41.7768 23.2843 41.9897C23.23 41.7371 23.188 41.4864 23.1549 41.2402C22.9996 40.0847 22.9998 38.673 23 37.1719V36.828C22.9998 35.3269 22.9996 33.9152 23.1549 32.7598C23.3278 31.474 23.741 30.0666 24.9038 28.9038C26.0667 27.7409 27.4741 27.3277 28.7598 27.1549C29.3838 27.071 30.0824 27.0325 30.8295 27.0148Z" fill="#E67205"/>
</svg>
