<svg width="48" height="48" viewBox="0 0 48 48" fill="none" xmlns="http://www.w3.org/2000/svg">
<path d="M4 8C4 5.79086 5.79086 4 8 4C10.2091 4 12 5.79086 12 8C12 9.67869 10.9659 11.1159 9.5 11.7092V22.5H22.5V11.7092C21.0341 11.1159 20 9.67869 20 8C20 5.79086 21.7909 4 24 4C26.2091 4 28 5.79086 28 8C28 9.67869 26.9659 11.1159 25.5 11.7092V22.5H32C33.928 22.5 35.2231 22.4968 36.1892 22.3669C37.1121 22.2428 37.5071 22.0284 37.7678 21.7678C38.0284 21.5071 38.2428 21.1121 38.3669 20.1892C38.4968 19.2231 38.5 17.928 38.5 16V11.7092C37.0341 11.1159 36 9.67869 36 8C36 5.79086 37.7909 4 40 4C42.2091 4 44 5.79086 44 8C44 9.67869 42.9659 11.1159 41.5 11.7092V16.104C41.5001 17.901 41.5001 19.3994 41.3402 20.589C41.1714 21.8445 40.8 22.9781 39.8891 23.8891C38.9781 24.8 37.8445 25.1714 36.589 25.3402C35.3994 25.5001 33.901 25.5001 32.104 25.5L25.5 25.5L25.5 36.2908C26.9659 36.8841 28 38.3213 28 40C28 42.2091 26.2091 44 24 44C21.7909 44 20 42.2091 20 40C20 38.3213 21.0341 36.8841 22.5 36.2908V25.5H9.5V36.2908C10.9659 36.8841 12 38.3213 12 40C12 42.2091 10.2091 44 8 44C5.79086 44 4 42.2091 4 40C4 38.3213 5.03408 36.8841 6.5 36.2908V11.7092C5.03408 11.1159 4 9.67869 4 8Z" fill="#E67205"/>
<path fill-rule="evenodd" clip-rule="evenodd" d="M34.5 30C34.5 29.1716 35.1716 28.5 36 28.5H40.5714C43.3224 28.5 45.5 30.7679 45.5 33.5C45.5 35.6571 44.1426 37.5248 42.2172 38.2154L45.2793 43.2168C45.7118 43.9233 45.4898 44.8467 44.7832 45.2793C44.0767 45.7118 43.1533 45.4898 42.7207 44.7832L38.8738 38.5H37.5V44C37.5 44.8284 36.8284 45.5 36 45.5C35.1716 45.5 34.5 44.8284 34.5 44V30ZM37.5 35.5H40.5714C41.6075 35.5 42.5 34.6339 42.5 33.5C42.5 32.3661 41.6075 31.5 40.5714 31.5H37.5V35.5Z" fill="#E67205"/>
</svg>
