<svg width="164" height="164" viewBox="0 0 164 164" fill="none" xmlns="http://www.w3.org/2000/svg">
<path fill-rule="evenodd" clip-rule="evenodd" d="M163.666 82.0001C163.666 127.103 127.103 163.667 81.9997 163.667C36.8965 163.667 0.333008 127.103 0.333008 82.0001C0.333008 36.8968 36.8965 0.333374 81.9997 0.333374C127.103 0.333374 163.666 36.8968 163.666 82.0001ZM114.914 57.2524C117.306 59.6444 117.306 63.5225 114.914 65.9145L74.0808 106.748C71.6888 109.14 67.8107 109.14 65.4187 106.748L49.0854 90.4145C46.6934 88.0225 46.6934 84.1444 49.0854 81.7524C51.4773 79.3605 55.3555 79.3605 57.7474 81.7524L69.7497 93.7547L88.0009 75.5036L106.252 57.2524C108.644 54.8604 112.522 54.8604 114.914 57.2524Z" fill="#E67205"/>
</svg>
