<svg width="22" height="22" viewBox="0 0 22 22" fill="none" xmlns="http://www.w3.org/2000/svg">
<rect width="22" height="22" rx="11" fill="#E67205"/>
<path d="M16.8334 12.1667V11C16.8334 10.5106 16.8334 10.0756 16.8259 9.68754H5.17427C5.16675 10.0756 5.16675 10.5106 5.16675 11V12.1667C5.16675 14.3666 5.16675 15.4665 5.85017 16.15C6.53358 16.8334 7.63353 16.8334 9.83341 16.8334H12.1667C14.3666 16.8334 15.4666 16.8334 16.15 16.15C16.8334 15.4665 16.8334 14.3666 16.8334 12.1667Z" fill="white"/>
<path d="M8.52091 5.45837C8.52091 5.21675 8.32504 5.02087 8.08341 5.02087C7.84179 5.02087 7.64591 5.21675 7.64591 5.45837V6.37961C6.80631 6.44684 6.25511 6.61184 5.85017 7.01679C5.44522 7.42174 5.28021 7.97293 5.21298 8.81254H16.7872C16.7199 7.97293 16.5549 7.42174 16.15 7.01679C15.745 6.61184 15.1939 6.44684 14.3542 6.37961V5.45837C14.3542 5.21675 14.1584 5.02087 13.9167 5.02087C13.6751 5.02087 13.4792 5.21675 13.4792 5.45837V6.3409C13.0912 6.33337 12.6562 6.33337 12.1667 6.33337H9.83341C9.34398 6.33337 8.90899 6.33337 8.52091 6.3409V5.45837Z" fill="white"/>
</svg>
