<svg width="22" height="23" viewBox="0 0 22 23" fill="none" xmlns="http://www.w3.org/2000/svg">
<rect y="0.5" width="22" height="22" rx="11" fill="#E67205"/>
<path fill-rule="evenodd" clip-rule="evenodd" d="M14.7917 12.6666C13.6642 12.6666 12.7501 13.5173 12.7501 14.5667C12.7501 15.6079 13.4017 16.8229 14.4184 17.2573C14.6554 17.3586 14.9281 17.3586 15.1651 17.2573C16.1818 16.8229 16.8334 15.6079 16.8334 14.5667C16.8334 13.5173 15.9193 12.6666 14.7917 12.6666ZM14.7917 15.2916C15.1139 15.2916 15.3751 15.0305 15.3751 14.7083C15.3751 14.3861 15.1139 14.125 14.7917 14.125C14.4696 14.125 14.2084 14.3861 14.2084 14.7083C14.2084 15.0305 14.4696 15.2916 14.7917 15.2916Z" fill="white"/>
<path fill-rule="evenodd" clip-rule="evenodd" d="M7.20841 5.66663C6.08083 5.66663 5.16675 6.51733 5.16675 7.56673C5.16675 8.6079 5.81838 9.82286 6.83506 10.2573C7.07207 10.3586 7.34476 10.3586 7.58177 10.2573C8.59845 9.82286 9.25008 8.6079 9.25008 7.56673C9.25008 6.51733 8.336 5.66663 7.20841 5.66663ZM7.20841 8.29163C7.53058 8.29163 7.79175 8.03046 7.79175 7.70829C7.79175 7.38613 7.53058 7.12496 7.20841 7.12496C6.88625 7.12496 6.62508 7.38613 6.62508 7.70829C6.62508 8.03046 6.88625 8.29163 7.20841 8.29163Z" fill="white"/>
<path fill-rule="evenodd" clip-rule="evenodd" d="M10.5625 7.41663C10.5625 7.175 10.7584 6.97913 11 6.97913H13.4102C15.0151 6.97913 15.6255 9.07504 14.2715 9.93667L8.19824 13.8015C7.58279 14.1931 7.86022 15.1458 8.58971 15.1458H9.94376L9.81562 15.0177C9.64476 14.8468 9.64476 14.5698 9.81562 14.3989C9.98647 14.2281 10.2635 14.2281 10.4343 14.3989L11.3093 15.2739C11.4802 15.4448 11.4802 15.7218 11.3093 15.8927L10.4343 16.7677C10.2635 16.9385 9.98647 16.9385 9.81562 16.7677C9.64476 16.5968 9.64476 16.3198 9.81562 16.1489L9.94376 16.0208H8.58971C6.98482 16.0208 6.3745 13.9249 7.72848 13.0632L13.8017 9.19846C14.4172 8.80682 14.1397 7.85413 13.4102 7.85413H11C10.7584 7.85413 10.5625 7.65825 10.5625 7.41663Z" fill="white"/>
</svg>
