<svg width="26" height="26" viewBox="0 0 26 26" fill="none" xmlns="http://www.w3.org/2000/svg">
<path d="M21.6942 4.55454C19.6524 2.49241 16.941 1.22778 14.049 0.988745C11.1569 0.749713 8.27462 1.55202 5.92202 3.25094C3.56941 4.94987 1.90135 7.43358 1.21871 10.2541C0.536072 13.0745 0.883796 16.0461 2.19916 18.6328L0.907966 24.9015C0.894568 24.9638 0.894189 25.0283 0.906851 25.0909C0.919514 25.1534 0.944946 25.2127 0.981557 25.265C1.03519 25.3443 1.11175 25.4053 1.201 25.44C1.29026 25.4747 1.38797 25.4813 1.48109 25.459L7.62485 24.0027C10.2043 25.2848 13.1549 25.6102 15.9516 24.9209C18.7484 24.2317 21.21 22.5726 22.8983 20.2388C24.5866 17.905 25.3922 15.0479 25.1717 12.1759C24.9512 9.3039 23.719 6.60326 21.6942 4.55454ZM19.7786 19.8437C18.3659 21.2524 16.5468 22.1823 14.5776 22.5024C12.6084 22.8225 10.5884 22.5165 8.80232 21.6278L7.94598 21.204L4.17944 22.0961L4.19059 22.0492L4.9711 18.2582L4.55186 17.4308C3.63923 15.6385 3.31729 13.6033 3.63216 11.6167C3.94702 9.63021 4.88253 7.79431 6.30467 6.37202C8.09161 4.58563 10.5149 3.58209 13.0416 3.58209C15.5684 3.58209 17.9916 4.58563 19.7786 6.37202C19.7938 6.38947 19.8102 6.40586 19.8276 6.42108C21.5924 8.21208 22.5776 10.6281 22.5684 13.1425C22.5593 15.6569 21.5564 18.0657 19.7786 19.8437Z" fill="#E67205"/>
<path d="M19.4439 17.063C18.9823 17.79 18.2531 18.6798 17.3365 18.9005C15.7309 19.2886 13.2667 18.9139 10.2004 16.055L10.1625 16.0215C7.46637 13.5217 6.76614 11.441 6.93562 9.79081C7.02928 8.85419 7.8098 8.00678 8.46766 7.45373C8.57167 7.36496 8.695 7.30176 8.8278 7.26918C8.9606 7.2366 9.09918 7.23555 9.23246 7.26611C9.36574 7.29666 9.49002 7.35798 9.59536 7.44516C9.70071 7.53233 9.78419 7.64295 9.83914 7.76816L10.8315 9.9982C10.896 10.1428 10.9199 10.3022 10.9006 10.4594C10.8814 10.6165 10.8197 10.7655 10.7222 10.8902L10.2205 11.5414C10.1128 11.6758 10.0478 11.8394 10.0339 12.0111C10.02 12.1828 10.0578 12.3547 10.1424 12.5048C10.4234 12.9976 11.0969 13.7224 11.8439 14.3936C12.6824 15.1518 13.6124 15.8454 14.2011 16.0818C14.3586 16.1461 14.5318 16.1618 14.6984 16.1268C14.8649 16.0919 15.0172 16.0078 15.1355 15.8855L15.7175 15.299C15.8298 15.1883 15.9695 15.1093 16.1223 15.0701C16.2751 15.0309 16.4355 15.033 16.5872 15.076L18.9444 15.745C19.0744 15.7849 19.1936 15.854 19.2928 15.947C19.3921 16.04 19.4687 16.1545 19.5169 16.2817C19.5651 16.4088 19.5836 16.5454 19.571 16.6808C19.5583 16.8162 19.5149 16.9469 19.4439 17.063Z" fill="#E67205"/>
</svg>
