<svg width="22" height="22" viewBox="0 0 22 22" fill="none" xmlns="http://www.w3.org/2000/svg">
<rect width="22" height="22" rx="11" fill="#E67205"/>
<path fill-rule="evenodd" clip-rule="evenodd" d="M11 18.5C15.1421 18.5 18.5 15.1421 18.5 11C18.5 6.85786 15.1421 3.5 11 3.5C6.85786 3.5 3.5 6.85786 3.5 11C3.5 15.1421 6.85786 18.5 11 18.5ZM15.4652 11.5624H13.1791C13.0756 11.9646 12.8637 12.3233 12.5764 12.6054L13.7196 14.5855C14.6607 13.8706 15.3117 12.7938 15.4652 11.5624ZM12.7458 15.1488L11.6024 13.1684C11.4107 13.2216 11.2087 13.25 11 13.25C10.7913 13.25 10.5893 13.2216 10.3975 13.1684L9.25415 15.1488C9.79099 15.375 10.3809 15.5 11 15.5C11.6191 15.5 12.209 15.375 12.7458 15.1488ZM8.28035 14.5855L9.42355 12.6054C9.13625 12.3233 8.92436 11.9646 8.82086 11.5624H6.5348C6.68832 12.7937 7.33933 13.8706 8.28035 14.5855ZM15.4652 10.4374H13.1791C13.0756 10.0353 12.8637 9.67665 12.5764 9.39453L13.7196 7.41446C14.6606 8.1293 15.3116 9.20611 15.4652 10.4374ZM12.7458 6.85116C12.2089 6.62501 11.6191 6.5 11 6.5C10.3809 6.5 9.79102 6.62502 9.2542 6.85118L10.3976 8.83156C10.5893 8.7784 10.7913 8.75 11 8.75C11.2086 8.75 11.4107 8.7784 11.6024 8.83154L12.7458 6.85116ZM9.42359 9.39456L8.28039 7.41449C7.3394 8.12933 6.68839 9.20612 6.53483 10.4374H8.82091C8.92443 10.0353 9.13632 9.67667 9.42359 9.39456Z" fill="white"/>
</svg>
