<svg width="48" height="48" viewBox="0 0 48 48" fill="none" xmlns="http://www.w3.org/2000/svg">
<path fill-rule="evenodd" clip-rule="evenodd" d="M37 28C33.134 28 30 30.9167 30 34.5146C30 38.0844 32.2342 42.2499 35.7199 43.7396C36.5325 44.0868 37.4675 44.0868 38.2801 43.7396C41.7658 42.2499 44 38.0844 44 34.5146C44 30.9167 40.866 28 37 28ZM37 37C38.1046 37 39 36.1046 39 35C39 33.8954 38.1046 33 37 33C35.8954 33 35 33.8954 35 35C35 36.1046 35.8954 37 37 37Z" fill="#E67205"/>
<path fill-rule="evenodd" clip-rule="evenodd" d="M11 4C7.13401 4 4 6.9167 4 10.5146C4 14.0844 6.23416 18.2499 9.71993 19.7396C10.5325 20.0868 11.4675 20.0868 12.2801 19.7396C15.7658 18.2499 18 14.0844 18 10.5146C18 6.9167 14.866 4 11 4ZM11 13C12.1046 13 13 12.1046 13 11C13 9.89543 12.1046 9 11 9C9.89543 9 9 9.89543 9 11C9 12.1046 9.89543 13 11 13Z" fill="#E67205"/>
<path fill-rule="evenodd" clip-rule="evenodd" d="M22.5 10C22.5 9.17157 23.1716 8.5 24 8.5H32.2638C37.7662 8.5 39.8588 15.686 35.2166 18.6401L14.3941 31.8908C12.284 33.2336 13.2351 36.5 15.7362 36.5H20.3787L19.9394 36.0607C19.3536 35.4749 19.3536 34.5251 19.9394 33.9393C20.5251 33.3536 21.4749 33.3536 22.0607 33.9393L25.0607 36.9393C25.6465 37.5251 25.6465 38.4749 25.0607 39.0607L22.0607 42.0607C21.4749 42.6464 20.5251 42.6464 19.9394 42.0607C19.3536 41.4749 19.3536 40.5251 19.9394 39.9393L20.3787 39.5H15.7362C10.2338 39.5 8.14124 32.314 12.7834 29.3599L33.606 16.1092C35.7161 14.7664 34.7649 11.5 32.2638 11.5H24C23.1716 11.5 22.5 10.8284 22.5 10Z" fill="#E67205"/>
</svg>
