<svg width="48" height="48" viewBox="0 0 48 48" fill="none" xmlns="http://www.w3.org/2000/svg">
<path d="M24 20C28.4183 20 32 16.4183 32 12C32 7.58172 28.4183 4 24 4C19.5817 4 16 7.58172 16 12C16 16.4183 19.5817 20 24 20Z" fill="#E67205"/>
<path d="M5.45557 11.6361C5.25465 10.8324 4.44024 10.3437 3.63655 10.5447C2.83286 10.7456 2.34422 11.56 2.54514 12.3637L3.30907 15.4194C4.71859 21.0575 8.99207 25.4991 14.5004 27.1573L14.5004 36.1039C14.5003 37.9008 14.5002 39.3993 14.6602 40.5888C14.829 41.8444 15.2003 42.978 16.1113 43.889C17.0222 44.7999 18.1558 45.1712 19.4114 45.34C20.601 45.5 22.0994 45.4999 23.8964 45.4999H24.1043C25.9013 45.4999 27.3997 45.5 28.5893 45.34C29.8449 45.1712 30.9785 44.7999 31.8894 43.889C32.8004 42.978 33.1717 41.8444 33.3405 40.5888C33.5005 39.3993 33.5004 37.9009 33.5004 36.1039L33.5004 27.7179C35.4626 28.3029 36.9615 30.0077 37.2117 32.134L38.5106 43.1751C38.6074 43.9979 39.3528 44.5864 40.1756 44.4896C40.9984 44.3928 41.5869 43.6474 41.4901 42.8246L40.1911 31.7835C39.7025 27.6301 36.1824 24.4999 32.0004 24.4999H16.1694C11.2825 23.3527 7.43914 19.5703 6.2195 14.6918L5.45557 11.6361Z" fill="#E67205"/>
</svg>
