<svg width="48" height="48" viewBox="0 0 48 48" fill="none" xmlns="http://www.w3.org/2000/svg">
<path fill-rule="evenodd" clip-rule="evenodd" d="M18.1992 4.79508C18.4975 5.56792 18.1128 6.43629 17.34 6.73462C17.0571 6.84381 16.7776 6.95977 16.5016 7.08229C15.7444 7.41843 14.8581 7.07711 14.522 6.31995C14.1859 5.56278 14.5272 4.67648 15.2843 4.34034C15.6053 4.19783 15.9305 4.06294 16.2596 3.9359C17.0325 3.63757 17.9008 4.02224 18.1992 4.79508ZM11.2954 8.48053C11.8667 9.08043 11.8436 10.0299 11.2437 10.6012C11.0243 10.8101 10.8101 11.0243 10.6012 11.2437C10.0299 11.8436 9.08043 11.8667 8.48053 11.2954C7.88063 10.7241 7.85746 9.77462 8.42879 9.17472C8.67133 8.92005 8.92005 8.67133 9.17472 8.42879C9.77462 7.85746 10.7241 7.88063 11.2954 8.48053ZM6.31995 14.522C7.07711 14.8581 7.41843 15.7444 7.08229 16.5016C6.95977 16.7776 6.84381 17.0571 6.73462 17.34C6.43628 18.1128 5.56792 18.4975 4.79508 18.1992C4.02223 17.9008 3.63757 17.0325 3.9359 16.2596C4.06294 15.9305 4.19783 15.6053 4.34034 15.2843C4.67648 14.5272 5.56278 14.1859 6.31995 14.522ZM4.04217 22.0081C4.87036 22.0281 5.52551 22.7157 5.5055 23.5439C5.50184 23.6954 5.5 23.8475 5.5 24C5.5 24.1525 5.50184 24.3046 5.5055 24.4561C5.52551 25.2843 4.87036 25.9719 4.04217 25.9919C3.21399 26.0119 2.52639 25.3568 2.50638 24.5286C2.50213 24.3529 2.5 24.1767 2.5 24C2.5 23.8233 2.50213 23.6471 2.50638 23.4714C2.52639 22.6432 3.21399 21.9881 4.04217 22.0081ZM43.2049 29.8008C43.9778 30.0992 44.3624 30.9675 44.0641 31.7404C43.9371 32.0695 43.8022 32.3946 43.6597 32.7157C43.3235 33.4728 42.4372 33.8141 41.6801 33.478C40.9229 33.1419 40.5816 32.2556 40.9177 31.4984C41.0402 31.2224 41.1562 30.9429 41.2654 30.66C41.5637 29.8872 42.4321 29.5025 43.2049 29.8008ZM4.79508 29.8008C5.56792 29.5025 6.43629 29.8872 6.73462 30.66C6.84381 30.9429 6.95977 31.2224 7.08229 31.4984C7.41843 32.2556 7.07711 33.1419 6.31995 33.478C5.56278 33.8141 4.67648 33.4728 4.34034 32.7157C4.19783 32.3947 4.06294 32.0695 3.9359 31.7404C3.63757 30.9675 4.02224 30.0992 4.79508 29.8008ZM39.5195 36.7046C40.1194 37.2759 40.1425 38.2254 39.5712 38.8253C39.3287 39.0799 39.08 39.3287 38.8253 39.5712C38.2254 40.1425 37.2759 40.1194 36.7046 39.5195C36.1333 38.9196 36.1564 37.9701 36.7563 37.3988C36.9757 37.1899 37.1899 36.9757 37.3988 36.7563C37.9701 36.1564 38.9196 36.1333 39.5195 36.7046ZM8.48053 36.7046C9.08043 36.1333 10.0299 36.1564 10.6012 36.7563C10.8101 36.9757 11.0243 37.1899 11.2437 37.3988C11.8436 37.9701 11.8667 38.9196 11.2954 39.5195C10.7241 40.1194 9.77462 40.1425 9.17472 39.5712C8.92005 39.3287 8.67133 39.08 8.42879 38.8253C7.85746 38.2254 7.88063 37.2759 8.48053 36.7046ZM14.522 41.6801C14.8581 40.9229 15.7444 40.5816 16.5016 40.9177C16.7776 41.0402 17.0571 41.1562 17.34 41.2654C18.1128 41.5637 18.4975 42.4321 18.1992 43.2049C17.9008 43.9778 17.0325 44.3624 16.2596 44.0641C15.9305 43.9371 15.6053 43.8022 15.2843 43.6597C14.5272 43.3235 14.1859 42.4372 14.522 41.6801ZM33.478 41.6801C33.8141 42.4372 33.4728 43.3235 32.7157 43.6597C32.3947 43.8022 32.0695 43.9371 31.7404 44.0641C30.9675 44.3624 30.0992 43.9778 29.8008 43.2049C29.5025 42.4321 29.8872 41.5637 30.66 41.2654C30.9429 41.1562 31.2224 41.0402 31.4984 40.9177C32.2556 40.5816 33.1419 40.9229 33.478 41.6801ZM22.0081 43.9578C22.0281 43.1296 22.7157 42.4745 23.5439 42.4945C23.6954 42.4982 23.8475 42.5 24 42.5C24.1525 42.5 24.3046 42.4982 24.4561 42.4945C25.2843 42.4745 25.9719 43.1296 25.9919 43.9578C26.0119 44.786 25.3568 45.4736 24.5286 45.4936C24.3529 45.4979 24.1767 45.5 24 45.5C23.8233 45.5 23.6471 45.4979 23.4714 45.4936C22.6432 45.4736 21.9881 44.786 22.0081 43.9578Z" fill="#E67205"/>
<path fill-rule="evenodd" clip-rule="evenodd" d="M24 5.5C34.2173 5.5 42.5 13.7827 42.5 24C42.5 24.8284 43.1716 25.5 44 25.5C44.8284 25.5 45.5 24.8284 45.5 24C45.5 12.1259 35.8741 2.5 24 2.5C23.1716 2.5 22.5 3.17157 22.5 4C22.5 4.82843 23.1716 5.5 24 5.5Z" fill="#E67205"/>
<path fill-rule="evenodd" clip-rule="evenodd" d="M24 16.5C24.8284 16.5 25.5 17.1716 25.5 18V24.5H32C32.8284 24.5 33.5 25.1716 33.5 26C33.5 26.8284 32.8284 27.5 32 27.5H24C23.1716 27.5 22.5 26.8284 22.5 26V18C22.5 17.1716 23.1716 16.5 24 16.5Z" fill="#E67205"/>
</svg>
