<svg width="48" height="48" viewBox="0 0 48 48" fill="none" xmlns="http://www.w3.org/2000/svg">
<path d="M22.5 4.14697C21.2875 4.37317 19.8632 4.8607 17.6754 5.60957L16.5298 6.00172C10.5166 8.06005 7.51006 9.08922 6.75503 10.165C6.01649 11.2172 6.00036 14.2996 6.00001 20.419L22.5 14.919V4.14697Z" fill="#E67205"/>
<path d="M22.5 18.0813L6 23.5813V23.9829C6 35.259 14.4779 40.7311 19.7971 43.0547C20.8186 43.5009 21.4785 43.7891 22.5 43.9195V18.0813Z" fill="#E67205"/>
<path d="M25.5 43.9195V18.0813L42 23.5813V23.9829C42 35.259 33.5221 40.7311 28.2029 43.0547C27.1814 43.5009 26.5215 43.7891 25.5 43.9195Z" fill="#E67205"/>
<path d="M25.5 14.919V4.14697C26.7125 4.37317 28.1368 4.8607 30.3246 5.60957L31.4702 6.00172C37.4834 8.06005 40.4899 9.08922 41.245 10.165C41.9835 11.2172 41.9996 14.2996 42 20.419L25.5 14.919Z" fill="#E67205"/>
</svg>
