<svg width="132" height="77" viewBox="0 0 132 77" fill="none" xmlns="http://www.w3.org/2000/svg">
<path d="M20.3217 50.4832H5.52873C1.27381 50.2319 -0.525169 46.7309 0.131808 39.976C0.793194 33.221 3.41229 29.7289 8.00231 29.4996L22.4073 29.5129L21.8958 34.6232H9.17077C8.22278 34.632 7.52611 34.9671 7.08959 35.6285C6.07106 38.2255 5.66541 40.8226 5.87705 43.424C5.98728 44.253 6.48552 44.7821 7.37619 45.0113L20.8641 45.0422L20.3261 50.4832H20.3217Z" fill="white"/>
<path d="M21.327 50.5269L22.6145 37.3654C23.0731 32.3476 25.6084 29.7285 30.2117 29.4949L44.6607 29.5081L44.1493 34.636H31.3492C30.2602 34.5963 29.4753 35.1078 28.9947 36.166L28.8889 37.2595L43.92 37.2463L43.4085 42.2993L28.4656 42.2861L27.6278 50.5314H21.3182L21.327 50.5269Z" fill="white"/>
<path d="M18.8843 56.2324L18.3155 62.0173L7.84352 62.0041L7.12921 68.9266C7.12039 70.1523 7.7465 70.8314 9.01195 70.9548L21.4372 70.9681L20.8993 76.7221H6.82057C2.37165 76.4972 0.413946 73.9443 0.951873 69.0544L1.68381 61.9556L0.00387573 61.9864L0.585899 56.2324H18.8843Z" fill="white"/>
<path d="M23.5713 56.2501H37.7382C42.024 56.96 44.0566 59.2793 43.8406 63.1991C43.7833 66.0695 42.6413 68.3447 40.4234 70.0202L43.285 76.7531H36.4639L33.6905 70.3112H28.2715L27.6454 76.6782L21.5122 76.6914L23.5713 56.2457V56.2501ZM28.9153 64.9099L36.4374 64.9231C37.5883 64.9055 38.2452 64.3499 38.4172 63.2652C38.5892 62.1806 38.0645 61.5456 36.8475 61.3604H29.268L28.9197 64.9099H28.9153Z" fill="white"/>
<path d="M43.2717 76.634L44.6607 62.7185C45.3044 58.5341 47.8309 56.3471 52.2402 56.1619L59.1627 56.1752C63.1751 56.4485 65.0578 58.6135 64.8153 62.6744L63.4132 76.6649H57.981L58.6071 70.4435L49.524 70.3994L48.9112 76.634H43.2762H43.2717ZM50.2957 63.155L50.062 65.3288H59.1318L59.3214 63.6224C59.6124 62.0439 59.1538 61.162 57.9501 60.9768L52.4606 60.9901C51.0012 61.0297 50.278 61.7484 50.3001 63.1506L50.2957 63.155Z" fill="white"/>
<path d="M72.0862 74.9541L64.6389 56.2766H71.7643L76.4954 68.2829L83.3165 56.2766H90.1508L79.3746 74.9541C78.5457 76.3166 77.267 77 75.5342 77C73.8013 77 72.6638 76.321 72.0862 74.9541Z" fill="white"/>
<path d="M109.018 76.6914H94.6171C90.4901 76.4489 88.744 73.0449 89.3834 66.4752C90.0227 59.9098 92.5757 56.5147 97.0422 56.2898H111.046L110.548 61.2546L98.1357 61.2678C97.0863 61.2282 96.4558 61.4927 96.253 62.0571L95.7547 63.8076L110.314 63.8208L109.789 68.7283L95.3491 68.671L95.3623 69.8262C95.402 70.8006 95.7503 71.3253 96.4117 71.4047L109.538 71.3915L109.013 76.6914H109.018Z" fill="white"/>
<path d="M118.247 56.2325L116.959 68.9223C116.95 70.1481 117.576 70.8271 118.842 70.9505L131.271 70.9638L130.729 76.7178H116.65C112.201 76.4929 110.244 73.94 110.782 69.0501L112.082 56.2281H118.247V56.2325Z" fill="white"/>
<path d="M78.2218 36.5383C78.3 36.5383 78.7693 36.7057 79.2616 36.9097C79.7585 37.1138 80.2001 37.2812 80.2461 37.2835C80.4118 37.2835 80.7154 36.9923 80.6878 36.857C80.6648 36.7355 80.6326 36.724 80.2784 36.6988C79.8689 36.669 79.4824 36.5635 78.6313 36.2425C78.3368 36.1324 78.0562 36.0407 78.0056 36.0407C77.9044 36.0407 76.9612 36.6804 76.9612 36.7469C76.9612 36.802 76.9658 36.802 77.5593 36.6621C77.8491 36.5933 78.1482 36.5383 78.2264 36.5383H78.2218Z" fill="#010101"/>
<path d="M116.104 45.7737C115.017 46.2767 114.062 46.7097 113.983 46.7359C113.868 46.7709 113.829 46.7272 113.789 46.5128C113.723 46.1586 113.428 45.9005 113.015 45.8218C112.83 45.7868 111.958 45.7781 111.074 45.8043C109.934 45.8349 109.349 45.8174 109.058 45.7474L108.644 45.6512L107.989 46.1717C107.395 46.6397 107.131 46.7884 107.351 46.5216C107.54 46.2942 108.165 44.9514 108.389 44.2822C108.812 43.0532 109.089 41.3955 108.878 41.3955C108.834 41.3955 108.684 41.4524 108.552 41.518C108.42 41.588 108.292 41.6273 108.275 41.6055C108.253 41.5836 108.385 41.2556 108.57 40.8663C108.887 40.1884 108.9 40.1446 108.856 39.5585C108.807 38.8675 108.666 38.2464 108.543 38.172C108.499 38.1458 108.394 38.2027 108.314 38.3033C108.231 38.4039 108.147 38.4651 108.125 38.4432C108.103 38.4214 108.125 38.0758 108.178 37.6778C108.27 36.9693 108.266 36.9386 108.064 36.4225C107.751 35.6396 107.553 35.3422 107.417 35.4559C107.324 35.5303 107.289 35.4909 107.219 35.2241C107.17 35.0448 107.1 34.7649 107.056 34.5987C106.906 34.0213 106.611 33.7676 104.362 32.2674C103.909 31.9656 103.553 31.6901 103.566 31.6551C103.588 31.5983 104.565 30.671 105.885 29.4595C106.646 28.7597 106.69 28.5978 106.4 27.6356C106.246 27.1282 106.162 26.9927 105.753 26.5903C105.379 26.2229 105.207 25.9648 104.908 25.3131C104.358 24.1147 104.169 23.8435 103.808 23.7517C103.491 23.6686 102.589 23.5724 100.41 23.393C99.1472 23.2881 99.0547 23.2706 98.8611 23.0825C98.7951 23.0169 98.7599 22.9775 98.7379 22.9425L98.1658 22.3083C98.1438 22.3171 98.1261 22.3215 98.1173 22.3215C98.0513 22.3215 97.7697 22.1378 97.488 21.9191C96.5506 21.1755 96.1589 21.0312 94.4734 20.8213C94.1037 20.7775 93.2587 20.6682 92.6029 20.5807C91.3443 20.4145 88.8401 20.1258 86.5252 19.8765L85.1477 19.7278L82.5863 20.1958C78.6343 20.9131 78.203 20.9918 78.0314 20.9962C77.9081 21.0006 76.535 20.7906 75.2015 20.5676L73.4191 20.4189C73.2343 20.4101 73.1199 20.362 73.0891 20.2658C73.0582 20.1739 73.045 20.0865 73.0626 20.0733C73.0758 20.0602 73.5027 19.9509 74.0045 19.8328C74.9683 19.6053 75.492 19.426 75.4128 19.3473C75.3864 19.321 74.6734 19.3473 73.8284 19.3998C72.0284 19.5179 69.5551 19.5441 69.1194 19.4523C68.8553 19.3954 68.7937 19.3385 68.6573 19.0149C68.3096 18.2057 68.1732 17.7027 68.2612 17.5584C68.3096 17.4841 68.4593 17.0773 68.5957 16.6574C68.7805 16.0888 68.8201 15.8701 68.7497 15.8045C68.6925 15.7477 68.0852 15.6996 67.0113 15.6733C65.3874 15.6339 65.3566 15.6296 65.0353 15.4196C64.692 15.1966 64.3663 14.8423 64.3663 14.6892C64.3663 14.6367 64.5248 14.4443 64.7184 14.2562L65.0705 13.9151L66.0915 14.1294C66.6549 14.2475 67.2578 14.3962 67.4382 14.4574C67.9003 14.6149 69.1106 15.3278 69.0886 15.4284C69.0578 15.5596 69.247 15.6296 70.739 16.0582C71.5047 16.2769 72.8294 16.6574 73.6832 16.9023C77.6133 18.0395 78.1854 18.1926 78.247 18.1357C78.2822 18.1008 78.1326 17.7902 77.9125 17.4491C77.6925 17.1079 77.5252 16.8149 77.5428 16.7974C77.5604 16.7799 78.0181 17.1079 78.5683 17.5278L79.5629 18.2845H81.3805C82.3795 18.2845 83.6822 18.3194 84.2719 18.3632C84.8616 18.4069 86.0103 18.4769 86.8201 18.525L88.2944 18.6081L89.6367 18.0002L90.979 17.3922L92.1848 17.5278C93.5579 17.6809 93.6724 17.7027 93.6724 17.834C93.6724 17.8952 93.2235 17.987 92.3389 18.1051C89.135 18.5294 88.6113 18.6081 88.5496 18.6737C88.4616 18.7612 88.6993 18.8093 90.2088 18.9974C90.9086 19.0849 92.0396 19.2248 92.7174 19.3123C93.3951 19.3998 94.1389 19.4916 94.3677 19.5222C94.865 19.5835 94.8783 19.5441 94.5658 18.9799C94.447 18.7612 94.2401 18.3107 94.1037 17.9827C93.822 17.2872 93.9452 17.3441 92.2509 17.1035C90.8206 16.898 90.7369 16.9023 90.2264 17.1298C89.0205 17.6721 87.9863 18.1226 87.9687 18.1051C87.9599 18.0964 87.8015 17.8033 87.621 17.4534C87.4362 17.1035 87.2073 16.7449 87.1149 16.6574C87.0181 16.5656 86.5296 16.3119 86.0235 16.0888L85.1081 15.6864L84.0915 15.7433L83.0748 15.8002L82.7448 16.1151C82.5467 16.3031 82.4015 16.3906 82.3795 16.3338C82.2695 16.0363 81.9394 15.7083 81.5169 15.4852C80.2406 14.8029 79.9766 14.5449 79.4176 13.4558C79.1844 13.0009 78.9468 12.5723 78.8851 12.5067C78.8235 12.4367 78.7707 12.3492 78.7707 12.3099C78.7707 12.2705 78.7355 12.1874 78.6959 12.1218C78.6387 12.03 78.5463 12.0781 78.2206 12.3799C78.0005 12.5854 77.7277 12.7866 77.6133 12.8304C77.0807 13.0315 76.2798 12.8304 74.603 12.0737L73.582 11.6144L72.8382 11.7019C71.5619 11.8506 71.0426 12.2049 71.4563 12.6467C71.7028 12.9091 72.8074 13.7576 73.3267 14.0813C73.9957 14.4968 75.4392 14.9735 76.2402 15.0435C76.8431 15.096 76.9707 15.131 77.2348 15.3409C77.5869 15.6165 78.6123 16.6618 78.6123 16.7449C78.6123 16.7755 78.2734 16.4912 77.8553 16.1194C77.2392 15.5683 77.0499 15.4415 76.8387 15.4371C76.6979 15.4371 76.2049 15.4021 75.7428 15.3671C75.0915 15.319 74.8582 15.3278 74.691 15.4109C74.5722 15.4721 74.4578 15.5202 74.4357 15.5202C74.4137 15.5202 74.3257 15.3628 74.2421 15.1747C74.1277 14.9166 73.9517 14.7329 73.5424 14.4443C72.2485 13.5389 71.4519 12.8916 71.0206 12.4017C70.6597 11.995 70.4353 11.82 70.004 11.6232C69.4891 11.387 69.4539 11.352 69.4539 11.1158C69.4539 10.8009 69.7927 10.3767 70.0436 10.3767C70.1404 10.3767 70.4353 10.4816 70.6949 10.6041C71.1262 10.814 71.826 10.9977 72.6974 11.129C73.1551 11.1989 73.1375 11.059 72.6534 10.8184C72.4421 10.7134 72.2221 10.5691 72.1649 10.4991C71.9184 10.2061 72.3629 9.08202 72.7634 8.98142C73.0803 8.9027 73.5071 9.00329 74.1321 9.30946C74.4842 9.48441 74.7702 9.57626 74.8627 9.54564C74.9595 9.51503 75.1619 9.58938 75.4084 9.73809C75.7252 9.93054 76.1125 10.0399 77.3844 10.3023C78.2558 10.4816 79.0436 10.6741 79.1316 10.7309C79.2856 10.8315 79.7301 11.7631 80.5223 13.6789C80.7071 14.125 80.9008 14.488 80.9492 14.488C80.9976 14.488 81.1516 14.2999 81.2881 14.0725C81.6049 13.552 82.089 12.9834 82.2211 12.9834C82.3223 12.9834 82.4807 13.2021 83.4181 14.628C83.801 15.2141 84.0299 15.4809 84.2191 15.5683C84.4788 15.6908 84.5008 15.6908 85.0817 15.4065C85.4118 15.2491 85.7286 15.1178 85.7859 15.1178C85.8783 15.1178 87.247 15.5596 87.6079 15.7083C87.6915 15.7433 87.7355 15.8526 87.7311 16.0145C87.7311 16.1544 87.7311 16.4562 87.7443 16.688C87.7663 17.1954 87.9203 17.1735 87.9203 16.6662C87.9203 16.4737 87.9555 16.22 88.0039 16.1019L88.0876 15.8833L88.2592 16.0538C88.4264 16.22 88.4264 16.2463 88.334 16.898C88.2812 17.2697 88.2152 17.624 88.1888 17.6896C88.1624 17.7596 88.1888 17.8077 88.2504 17.8077C88.3076 17.8077 88.5233 17.5715 88.7301 17.2916L89.0998 16.7799L88.9853 16.2856C88.9237 16.0145 88.8533 15.7302 88.8313 15.6558C88.8005 15.5552 88.9061 15.459 89.2846 15.2709L89.7819 15.0216L90.3497 15.3103C90.6621 15.4721 91.0582 15.6208 91.2298 15.6427C91.5643 15.6864 91.6875 15.6033 91.912 15.1834C91.9736 15.0697 92.1232 14.8467 92.2509 14.6892C92.3917 14.5143 92.4577 14.3568 92.4313 14.2781C92.3873 14.16 92.3653 14.16 92.176 14.2868C92.0176 14.3918 91.8768 14.4093 91.5599 14.3699C91.3355 14.3437 90.9174 14.3043 90.6357 14.2824C90.1076 14.2431 89.9184 14.1294 89.9184 13.8494C89.9184 13.7007 90.6753 13.3246 91.1154 13.2502C91.3619 13.2109 91.4719 13.2502 91.9428 13.5651C92.2421 13.7663 92.5061 13.9107 92.5237 13.8932C92.5721 13.8451 92.1628 13.3333 91.8328 13.0228L91.5863 12.791L90.4993 12.8872C89.9007 12.9397 89.3726 13.0184 89.3242 13.0534C89.2758 13.0928 89.1526 13.2896 89.0426 13.4864L88.8445 13.8494L89.0382 14.2081L89.2318 14.5667L88.8797 14.8729C88.6861 15.0435 88.4837 15.1834 88.4308 15.1834C88.378 15.1834 87.8015 15.0654 87.159 14.9166C86.512 14.7679 85.8299 14.6236 85.6406 14.593C85.2049 14.523 84.6504 14.1512 83.6294 13.2284C82.9428 12.6117 82.7448 12.4761 82.3707 12.3711C81.5697 12.1524 81.0856 11.925 80.9052 11.6932C80.355 10.9846 80.1526 10.7659 79.7301 10.4291C79.1448 9.96552 78.8279 9.85181 77.5692 9.6856C76.1741 9.5019 75.7208 9.39256 75.69 9.23948C75.6768 9.1695 75.8793 8.67089 76.1389 8.13291C76.6846 7.00447 76.9971 6.18658 76.9135 6.10348C76.8431 6.0335 76.6626 6.26531 76.1565 7.10945C75.9321 7.48122 75.7208 7.83112 75.6812 7.88798C75.646 7.94484 75.3424 8.06293 75.0035 8.14603C74.449 8.28599 74.3566 8.29037 74.0177 8.18977L73.6392 8.07605L73.8724 7.9842C74.1849 7.86174 74.0749 7.78301 73.3531 7.62993C73.0187 7.55995 72.693 7.45497 72.6225 7.40249C72.5521 7.35 72.2969 7.06133 72.0548 6.76392C71.6896 6.31779 71.6103 6.16471 71.6103 5.91978C71.6103 5.75357 71.6411 5.60049 71.6764 5.57862C71.7116 5.55675 72.0328 5.71421 72.3849 5.9329L73.0275 6.32654L73.4147 6.17346C73.626 6.09035 74.0617 5.91103 74.3873 5.77544C74.7086 5.63985 75.0123 5.53051 75.0651 5.53051C75.1179 5.53051 75.382 5.70984 75.6548 5.9329C75.9849 6.1997 76.2005 6.31779 76.293 6.28717C76.557 6.20407 77.0851 5.56987 77.3096 5.06689C77.5208 4.58577 77.5296 4.54204 77.4328 4.11778C77.38 3.87285 77.2788 3.35237 77.2128 2.9631C77.1467 2.57383 77.0587 2.21081 77.0147 2.15832C76.8783 1.99212 75.9585 1.58973 75.3027 1.40603C74.4314 1.1611 73.3839 1.15673 72.8646 1.39291C72.3189 1.64222 71.9756 1.93526 71.4387 2.60445C71.179 2.93248 70.9282 3.24302 70.8842 3.29551C70.7742 3.4311 70.6509 3.41797 70.6509 3.26927C70.6509 3.08119 71.2055 2.09272 71.5707 1.6291C72.2617 0.754341 72.8866 0.544399 74.3521 0.701855C75.1883 0.793705 76.2446 1.06488 76.7287 1.30981C77.0939 1.49788 77.0851 1.3448 76.7111 1.01239C76.0245 0.404438 75.0695 0.0807783 73.7844 0.0107978C72.7326 -0.0416876 72.3233 0.0851521 71.6984 0.658117C70.5365 1.72969 69.7795 3.76788 70.004 5.21997C70.1184 5.94165 70.5497 6.84702 70.9634 7.21442C71.3287 7.54245 71.3991 7.78738 71.2847 8.34285C71.1702 8.88958 70.9678 9.04703 70.2284 9.1695C69.9116 9.22198 69.2426 9.34882 68.7365 9.45817C67.7111 9.67686 67.6671 9.70747 66.8441 10.6959C66.3908 11.247 66.1003 11.4439 65.4798 11.6276C65.1717 11.7194 65.0837 11.8025 64.7712 12.288C64.5732 12.5942 64.2123 13.1496 63.9747 13.517C63.6006 14.09 63.517 14.2868 63.4245 14.8248C63.1253 16.5175 63.9923 17.4622 66.0651 17.7027C66.3336 17.7334 66.5448 17.7946 66.5404 17.834C66.514 18.0089 65.8671 21.0049 65.8407 21.0837C65.8187 21.1493 65.6294 21.1318 65.1849 21.0268C63.6974 20.6725 61.9854 20.5545 61.158 20.7513C60.137 20.9918 59.4505 21.8535 59.2568 23.1306C59.0808 24.294 59.2964 24.8626 60.3307 26.0086C60.4935 26.1879 60.6255 26.3497 60.7048 26.4547C60.9776 26.634 61.7654 27.1064 62.6632 27.3163C62.7204 27.3732 63.1693 29.2714 63.1693 29.4507C63.1693 29.5469 63.002 30.098 62.7996 30.6754C62.5971 31.2527 62.4519 31.747 62.4739 31.7732C62.5003 31.7994 63.0461 32.0094 63.693 32.2456C64.3399 32.4818 64.8769 32.6873 64.8945 32.7004C64.9077 32.7136 64.7976 33.046 64.648 33.4352C64.4984 33.8245 64.0847 34.9267 63.7326 35.8846C62.8172 38.3645 62.892 38.2551 62.8216 37.2667C62.7512 36.217 62.4915 34.4193 62.2891 33.5621C62.1483 32.9585 62.1042 32.7704 62.2011 32.7092L61.3033 32.7486C61.4529 33.2297 61.8182 35.6003 61.9414 36.9693C61.9722 37.3148 61.9678 37.5816 61.9238 37.5772C61.8842 37.5772 60.938 37.0261 59.8246 36.3569L57.7957 35.141L57.6945 34.4018C57.5316 33.1859 57.2764 32.0313 57.0827 31.6289C57.0079 31.4714 56.9551 31.3358 56.9463 31.279L56.5282 30.8153C56.5546 30.9072 56.493 30.9072 56.3214 30.8066C56.1894 30.7322 56.0617 30.6885 56.0353 30.7148C56.0089 30.741 56.0969 31.1084 56.2378 31.5326C56.5414 32.473 56.6734 33.4746 56.8319 35.9589C56.9639 38.0758 57.0431 39.8385 56.9947 39.5979C56.9771 39.5104 56.8715 38.2989 56.7615 36.908C56.3742 32.0881 56.1717 31.1128 55.3752 30.2905L55.0099 29.9187L53.694 29.9537C52.0832 29.9974 51.3703 30.0543 51.4231 30.1374C51.4451 30.1724 51.8852 30.2642 52.4001 30.3386C53.4828 30.5004 54.5962 30.7235 54.9043 30.8416C55.0231 30.8853 55.1683 31.0253 55.2299 31.1434C55.6965 32.0619 56.3786 36.6456 56.5678 40.149C56.6162 41.0631 56.6999 42.0253 56.7483 42.2834C56.8495 42.8345 56.6999 42.7339 58.6187 43.5124C59.6925 43.9454 59.9698 44.0329 60.1722 43.9804C60.3087 43.9498 61.2064 43.7399 62.1703 43.5168C63.1341 43.2937 64.1375 43.0444 64.4015 42.9657C64.6656 42.8826 64.9957 42.7951 65.1365 42.7689L65.3962 42.7208V43.3156C65.3962 43.8798 65.3874 43.9148 65.1937 43.9848C64.9693 44.0679 62.9712 44.6015 62.5311 44.6934C62.3771 44.724 61.893 44.8508 61.4573 44.9689C59.5253 45.4981 59.6265 45.485 58.8695 45.2751C58.4954 45.1745 57.6373 44.9427 56.9595 44.7633C56.2818 44.584 55.6832 44.4003 55.6304 44.3609C55.4984 44.256 55.4016 43.7005 55.2079 41.8854C54.9395 39.3748 54.3541 34.9661 54.1649 34.0126C53.9933 33.1553 53.826 33.0329 52.2109 32.5824C50.9478 32.2281 51.0006 32.215 50.5737 33.116C50.226 33.8464 50.2084 33.8682 50.1556 33.6321C50.094 33.3478 50.1424 32.8492 50.3669 31.4977C50.4549 30.9597 50.5077 30.5004 50.4813 30.4786C50.3097 30.308 49.9312 31.0559 49.7596 31.8957C49.6055 32.6436 49.5923 34.0913 49.7331 34.2706C49.8784 34.4543 50.5165 34.8873 50.6397 34.8873C50.697 34.8873 50.9478 34.6118 51.1986 34.275C51.8148 33.4352 51.8104 33.4352 51.5903 34.0869C51.4451 34.5156 51.2911 34.7736 50.9918 35.0973C50.5737 35.5522 50.4901 35.8364 50.6926 36.0901C50.7454 36.1601 51.0182 36.4007 51.2911 36.6237C51.828 37.0611 52.3913 37.3541 52.9987 37.5072C53.2099 37.5597 53.3771 37.6253 53.3771 37.6472C53.3771 37.6734 53.1615 37.6997 52.9018 37.7084C52.2593 37.7303 51.6343 38.0408 51.027 38.64C49.7419 39.9172 48.5801 43.0182 48.3996 45.6643C48.3424 46.5172 48.3996 47.3832 48.5141 47.3832C48.5493 47.3832 48.6021 47.0902 48.6329 46.7315C48.9101 43.3987 50.0148 40.3721 51.2999 39.4404C52.0613 38.885 52.8094 38.745 53.1439 39.0949C53.4167 39.3792 53.8128 40.2234 54.1737 41.2906C54.3585 41.8329 54.539 42.3315 54.5786 42.3971C54.6886 42.5896 54.6666 42.0079 54.5302 41.1593C54.4114 40.4202 54.4114 39.9391 54.5302 40.4945C54.561 40.6476 54.7326 41.343 54.9043 42.0385C55.0759 42.7339 55.2211 43.3594 55.2211 43.425C55.2211 43.4906 55.1683 43.7749 55.1023 44.0592C55.0363 44.3435 54.8162 45.3757 54.6138 46.3554C53.892 49.8326 53.6104 50.9172 53.1791 51.8664C52.7038 52.9117 52.0833 53.3972 51.2163 53.3972C50.5121 53.3972 49.918 53.1479 49.4207 52.6318C48.963 52.155 48.9277 52.1507 49.1566 52.6012C49.6495 53.559 51.1899 54.2413 53.3067 54.4381C54.9791 54.5956 56.1101 54.3594 57.9585 53.4803C58.8739 53.0473 59.5693 52.5487 59.7585 52.1944C59.8642 51.9976 59.7937 51.9145 59.6353 52.0457C59.5693 52.0982 59.4813 52.1332 59.4373 52.1157C59.3933 52.1025 59.6441 51.7658 60.0006 51.3765C60.3967 50.9347 60.7311 50.4711 60.8808 50.1562C61.136 49.6139 61.1404 49.6401 60.7488 49.3995C60.6343 49.3296 60.6695 49.2508 60.9952 48.7872C61.4353 48.1618 61.3605 48.1749 63.0681 48.3673C63.6314 48.4286 64.8989 48.5423 65.8847 48.6123C66.8705 48.6866 67.7243 48.7697 67.7771 48.8003C67.8915 48.8616 65.0001 50.9435 64.3311 51.2846C63.5698 51.6739 63.3057 51.6345 63.4994 51.1709C63.6578 50.7948 63.5082 50.7379 63.0064 50.9829C62.3111 51.3284 60.3879 52.553 60.3879 52.6493C60.3879 52.7499 60.8192 52.8373 61.3429 52.8373C61.5409 52.8373 62.2759 52.6755 62.9756 52.4743C63.6754 52.2731 64.3223 52.0894 64.4104 52.0676C64.4984 52.0457 65.1057 51.8751 65.7659 51.687C67.5086 51.1928 68.5869 50.9391 68.9609 50.9391C69.4935 50.9391 70.0568 51.289 71.4123 52.4568C71.7512 52.7455 72.3189 53.1348 72.6798 53.3185C73.0406 53.5022 73.9032 53.992 74.6074 54.4075C75.3071 54.823 76.2137 55.3348 76.6186 55.5447C77.0235 55.7547 77.3844 55.9252 77.424 55.9252C77.5604 55.9252 78.1326 55.4879 79.3472 54.4688C81.6665 52.5137 81.8954 52.3693 83.3213 51.932C84.6724 51.5165 87.3526 50.8167 88.8005 50.5017C89.025 50.4536 89.025 50.4755 88.7829 51.0572C88.5673 51.5733 88.5364 52.0107 88.6861 52.4393C88.8093 52.8023 88.9854 52.8198 89.4431 52.5268C90.6929 51.7308 93.3511 50.7029 94.777 50.4624C95.8773 50.2787 97.5804 50.6417 101.088 51.8139C101.858 52.0719 102.54 52.2819 102.606 52.2819C102.738 52.2819 106.431 49.2465 107.623 48.1574C108.442 47.4095 108.776 47.2214 109.269 47.2214C109.723 47.2214 110.722 47.497 111.505 47.8337C112.161 48.118 112.231 48.1311 113.028 48.1268C113.719 48.1268 113.961 48.0874 114.427 47.9168C115.153 47.6544 115.466 47.4532 116.293 46.7097C116.667 46.3773 117.482 45.7256 118.107 45.2663C118.731 44.8071 119.229 44.4134 119.216 44.4003C119.172 44.3566 118.274 44.7415 116.108 45.7474L116.104 45.7737ZM81.7194 16.9636C81.7986 17.0598 81.7546 17.1429 81.4773 17.4359C81.1736 17.7552 81.0768 17.8077 80.5619 17.9083C79.8842 18.0439 79.7829 17.987 79.8665 17.5365C79.9062 17.3266 79.8621 17.0904 79.6949 16.6224C79.5717 16.2769 79.4881 15.9751 79.5101 15.9532C79.6025 15.8614 81.5389 16.7405 81.7194 16.9592V16.9636ZM73.2783 14.8117C73.3795 14.8729 73.5336 15.0566 73.6216 15.2272C73.8152 15.599 73.7756 15.6864 73.5732 15.3365C73.494 15.1966 73.3531 14.9954 73.2607 14.8948L73.0935 14.7067L73.2783 14.816V14.8117ZM72.3365 4.15714C72.3805 3.81599 72.4333 3.52294 72.4553 3.50108C72.4773 3.47921 73.0055 3.44422 73.6304 3.42672C74.8495 3.38736 75.8045 3.50545 76.3678 3.77225L76.6583 3.90784L76.6098 4.57703C76.5746 5.08876 76.5306 5.26808 76.4206 5.35119C76.1873 5.52614 76.0993 5.48677 75.514 4.94005C75.0167 4.47643 74.9243 4.42394 74.7174 4.46331C74.4974 4.50705 73.6172 5.19373 73.6128 5.32494C73.6128 5.43866 73.3135 5.38618 72.8822 5.19373C72.2661 4.92255 72.2441 4.88319 72.3365 4.15714ZM68.9125 13.9282C69.2866 13.8494 69.8015 13.7095 70.0612 13.6176C70.6377 13.4164 70.7125 13.4121 70.3384 13.6089C70.18 13.692 69.7707 13.8319 69.4274 13.9238C69.0842 14.0113 68.6749 14.0813 68.5208 14.0769C68.3184 14.0725 68.4372 14.0288 68.9125 13.9238V13.9282ZM57.184 42.1522C57.184 42.1522 57.1224 41.8285 57.0871 41.3912C57.0563 40.9494 57.0475 40.5733 57.0696 40.5514C57.0916 40.5295 57.1356 40.875 57.1664 41.3124C57.1972 41.7542 57.206 42.1303 57.184 42.1522ZM61.3649 41.8067C61.3517 42.4277 61.3253 42.9788 61.3077 43.0313C61.2857 43.1013 61.048 43.1319 60.4891 43.1319H59.7013L58.9356 42.3621C58.4426 41.8679 58.205 41.5749 58.2666 41.5399C58.3194 41.5092 58.5615 41.4349 58.7991 41.3693C59.0412 41.3037 59.6749 41.1243 60.2118 40.9669C60.7488 40.8094 61.2328 40.6782 61.2901 40.6782C61.3737 40.6782 61.3869 40.9188 61.3693 41.8067H61.3649ZM52.5717 36.7943C51.2251 36.1076 50.9522 35.8015 51.2955 35.3772L51.4363 35.2022L52.3825 35.4341L53.3287 35.6659L53.5136 36.4138C53.6148 36.8249 53.6984 37.1879 53.6984 37.2186C53.7072 37.3454 53.4695 37.2579 52.5717 36.7943ZM56.0397 52.868C55.8945 52.868 54.8119 51.8182 54.6226 51.4946C54.4158 51.1359 54.3322 50.7685 54.4598 50.7685C54.5038 50.7685 54.8735 51.1097 55.2784 51.5296C55.8593 52.1288 56.0265 52.3518 56.0661 52.5793C56.0925 52.7367 56.0793 52.868 56.0397 52.868ZM57.206 50.8866C56.7395 50.8866 55.8241 50.2656 55.5688 49.7713C55.4456 49.5351 55.4104 48.7522 55.5204 48.7522C55.5556 48.7522 55.6304 48.8484 55.6832 48.9665C55.8373 49.3033 56.5326 50.1343 56.9903 50.528C57.3644 50.8516 57.3864 50.8866 57.206 50.8866ZM58.1434 49.194C58.1434 49.194 57.9189 49.0934 57.6813 48.9359C57.1136 48.5598 56.4182 47.8425 56.1585 47.357C55.9297 46.9415 55.8021 46.421 55.9077 46.3598C56.0045 46.3029 57.3688 46.714 57.3688 46.7971C57.3688 46.8365 57.2808 46.9765 57.1708 47.1033C57.0607 47.2345 56.9727 47.3832 56.9727 47.4401C56.9727 47.497 57.2192 47.7463 57.5228 47.9912C58.0201 48.3936 58.0774 48.4723 58.1258 48.8003C58.1566 48.9972 58.1654 49.1765 58.1522 49.194H58.1434ZM59.6617 47.4051C59.5297 47.0902 59.5737 46.9896 59.7497 47.2039C59.8025 47.2651 59.8334 47.4095 59.8202 47.5188C59.7981 47.7025 59.785 47.6938 59.6617 47.4051ZM103.821 24.2109C103.957 24.329 104.49 25.3744 104.622 25.7899C104.662 25.9123 104.644 25.9604 104.552 25.9604C104.481 25.9604 104.411 25.8686 104.384 25.7418C104.296 25.3088 103.861 24.574 103.548 24.3378C103.377 24.2066 103.236 24.0797 103.231 24.0535C103.222 23.9616 103.663 24.0841 103.817 24.2109H103.821ZM85.4294 23.0606C85.8343 23.2093 85.9355 23.2924 86.1731 23.6511C86.5208 24.1847 86.9917 25.1644 86.9917 25.3481C86.9917 25.4939 86.1629 25.2985 84.5052 24.762C82.692 24.1759 82.5335 24.1103 82.5335 23.9441C82.5335 23.8435 82.4631 23.4149 82.3751 22.9906C82.2871 22.5664 82.2299 22.2034 82.2431 22.1902C82.3003 22.1334 84.6548 22.772 85.4338 23.0606H85.4294ZM75.0651 21.1624C75.1399 21.1405 75.2675 21.1405 75.3423 21.1624C75.4172 21.1843 75.3556 21.1974 75.2015 21.1974C75.0475 21.1974 74.9859 21.1799 75.0607 21.1624H75.0651ZM62.5795 25.8467C62.091 25.5668 61.4353 24.9501 61.1492 24.504C60.8148 23.9835 60.6959 23.603 60.6959 23.0475C60.6959 21.7704 61.6245 21.2149 63.7722 21.2236C64.5644 21.2236 65.6954 21.3199 65.7702 21.3942C65.7834 21.4073 65.669 22.0459 65.515 22.8069C65.361 23.568 65.2289 24.4559 65.2201 24.7839C65.2113 25.3394 65.2333 25.4268 65.581 26.1485C65.7878 26.5728 65.9111 26.9183 65.8583 26.9139C65.4622 26.8833 62.9668 26.0785 62.5752 25.8511L62.5795 25.8467ZM64.4984 31.4277C64.2607 31.2527 64.0275 31.0384 63.9791 30.9553C63.8118 30.6448 63.759 30.0718 63.8382 29.4945L63.9219 28.9171L63.5478 28.0992C63.046 27.0058 63.0417 26.9839 63.2749 27.032C63.3805 27.0539 64.0627 27.1151 64.7976 27.1676L66.1311 27.2638L66.382 27.7056L66.6328 28.1473L66.3864 28.8209C66.25 29.1927 65.9375 30.0456 65.6866 30.7191C65.4358 31.3927 65.2069 31.9744 65.1717 32.0138C65.1365 32.0531 65.0705 32.005 65.0177 31.9175C64.9693 31.8257 64.7316 31.607 64.494 31.4321L64.4984 31.4277ZM66.0475 35.2241C65.9507 35.3116 65.8847 35.5696 65.8187 36.1382C65.6074 37.984 65.5766 38.5394 65.6602 38.7844C65.7262 38.9725 65.713 39.1605 65.6118 39.6023C65.537 39.9172 65.4446 40.254 65.405 40.3546C65.3346 40.5295 65.3038 40.5339 64.0495 40.5339H62.7644L62.8216 40.0397C62.8524 39.7685 62.8876 39.5367 62.8964 39.5279C62.9052 39.5192 63.2925 39.6066 63.759 39.7247C64.2255 39.8428 64.626 39.9172 64.6568 39.8866C64.6876 39.856 64.8461 39.0206 65.0133 38.0277C65.3038 36.3001 65.6294 34.4193 65.9727 32.4643C66.1311 31.572 66.9365 28.3048 67.0773 27.9943C67.1243 27.8893 67.1522 27.8893 67.161 27.9943C67.1786 28.2917 67.3106 27.8281 67.4822 26.8571C67.9179 24.3815 68.402 23.1087 69.2382 22.2209C69.7795 21.6435 70.1712 21.3942 70.8842 21.1537C71.5223 20.9393 72.0108 20.9262 71.4211 21.1362C71.201 21.2149 70.8974 21.3417 70.7434 21.4205C70.3737 21.6085 69.3878 22.3477 69.3878 22.4396C69.3878 22.5227 69.938 22.4527 70.5761 22.2908C71.9536 21.9366 75.8573 21.9672 77.2876 22.3433C77.6617 22.4396 78.3262 22.96 78.5947 23.3668C78.7927 23.6642 78.8631 23.6992 79.915 24.0404C81.1736 24.4515 81.5389 24.4734 80.8128 24.0972C80.0514 23.7036 79.6289 23.3624 79.1668 22.772C78.9203 22.4527 78.5242 22.0722 78.2382 21.871C77.7673 21.5429 77.6793 21.5167 76.7683 21.3811C75.8925 21.2499 75.8573 21.2411 76.4382 21.2761C77.7585 21.3549 80.1922 21.6391 80.5399 21.7485C80.7379 21.8141 81.0944 21.9103 81.3365 21.9672L81.7722 22.0678L82.0714 23.0125C82.2343 23.533 82.3707 23.9835 82.3707 24.0141C82.3707 24.0447 81.957 23.9266 81.4509 23.7517C80.9448 23.5767 80.4871 23.4499 80.4343 23.4674C80.289 23.5155 81.1428 23.9704 82.0142 24.3072C82.9208 24.6571 88.158 26.3716 88.3164 26.3716C88.3736 26.3716 88.422 26.3366 88.422 26.2929C88.422 26.2491 88.202 25.7068 87.9335 25.0857C87.6651 24.4646 87.3218 23.6555 87.1721 23.2837C87.0225 22.9119 86.8509 22.5664 86.7981 22.5095C86.6088 22.3171 84.8748 22.0109 83.3477 21.8972C82.9428 21.8666 82.6127 21.8185 82.6127 21.7879C82.6127 21.696 85.9883 20.6463 86.2347 20.6594C86.3668 20.6682 86.8685 20.7294 87.3482 20.7906C88.6069 20.9568 91.0406 21.2718 92.5633 21.4642C95.1115 21.7835 96.3482 21.9541 96.379 21.9847C96.3966 22.0022 96.2909 22.2471 96.1413 22.5227C95.9917 22.8026 95.8949 23.0563 95.9301 23.0869C95.9741 23.1306 96.9511 23.2356 97.7081 23.2706C97.7081 23.2706 97.7125 23.2793 97.7169 23.2837L98.0645 23.3274C98.1041 23.3056 98.597 23.3668 99.112 23.4411C99.6489 23.5199 100.644 23.6555 101.321 23.7473C101.999 23.8392 102.646 23.931 102.756 23.9529C102.919 23.9835 103.007 24.1103 103.218 24.6089C103.57 25.4356 103.623 25.7767 103.425 25.9298C103.183 26.1179 102.413 26.4984 101.836 26.7171C101.334 26.9052 101.299 26.9096 101.202 26.7783C101.145 26.704 100.859 26.1048 100.564 25.4531C100.269 24.8014 99.9966 24.2328 99.9613 24.1934C99.7897 23.9966 99.8381 24.3072 100.168 25.4312C100.666 27.1414 100.828 27.5481 101.009 27.5481C101.189 27.5481 103.165 26.8746 104.464 26.3672C104.653 26.2929 104.745 26.271 104.728 26.3147H104.736L105.586 26.997L105.947 27.3469L106.228 27.6531L106.312 27.8674C106.338 27.9112 106.321 28.143 106.272 28.3835C106.167 28.8909 106.088 28.9652 103.671 30.8635C102.875 31.4889 102.206 32.0488 102.179 32.11C102.153 32.1756 102.021 32.2193 101.854 32.2193C101.572 32.2193 101.568 32.2281 101.216 32.9804C101.022 33.4003 100.859 33.7895 100.859 33.8507C100.859 33.9251 100.96 33.9601 101.176 33.9601C101.352 33.9601 101.493 33.9951 101.493 34.0345C101.493 34.0738 101.356 34.3144 101.189 34.5681C101.022 34.8217 100.815 35.1454 100.736 35.2854C100.666 35.4078 100.586 35.4691 100.503 35.504L98.5267 39.1474C98.5002 39.1736 97.3208 39.1212 95.9081 39.0293C90.1384 38.6663 90.046 38.6619 89.8612 38.8325C89.7687 38.9156 89.6059 39.1343 89.4959 39.318C89.3858 39.5017 89.2494 39.6548 89.1878 39.6548C88.9986 39.6548 88.5012 39.1693 88.5893 39.0687C88.6773 38.9637 88.8533 37.2142 88.7917 37.1092C88.7697 37.0699 88.6465 37.0392 88.5232 37.0392C88.2416 37.0392 88.2372 37.0217 88.1184 35.0229C88.0039 33.1028 87.9995 33.0897 87.6035 32.9541C87.4318 32.8929 87.2602 32.801 87.2294 32.7486C87.1941 32.6961 87.1678 32.4118 87.1678 32.1231C87.1678 31.6464 87.1457 31.5764 86.9565 31.4321C86.666 31.2046 86.5296 31.2221 86.5252 31.4845C86.5252 31.6026 86.5252 32.403 86.5252 33.2603C86.534 35.0448 86.6132 34.8698 85.667 35.1104L85.0861 35.2547L84.6944 34.8611L84.3027 34.4675L83.823 32.0969C83.559 30.7935 83.2993 29.7044 83.2509 29.6694C83.1981 29.6388 83.1805 29.5557 83.2069 29.4901C83.2465 29.3851 83.3609 29.4157 83.9374 29.6782C84.646 30.0062 84.9981 30.0893 84.7736 29.8837C84.7076 29.8225 83.7086 29.1402 82.5467 28.366C81.3849 27.5919 80.1658 26.774 79.8401 26.5509C76.7243 24.4209 75.8529 23.8523 75.5052 23.7079C74.9111 23.4674 72.5081 23.4805 71.0822 23.7298C69.8323 23.9485 69.1722 24.1235 68.983 24.2853C68.2964 24.8714 67.249 28.7815 66.3776 34.0257C66.2544 34.7649 66.1575 35.1279 66.0607 35.211L66.0475 35.2241ZM92.088 42.9788C91.9296 42.9788 90.3805 43.145 87.269 43.4906C85.8695 43.6437 84.6064 43.7924 84.47 43.8142L84.2191 43.858L84.1619 43.4162C84.1311 43.1757 84.1223 42.957 84.1443 42.9351C84.1795 42.9001 84.7296 42.8126 87.6695 42.384C88.4132 42.2747 89.7203 42.0866 90.5741 41.9597C91.4279 41.8373 92.1408 41.7454 92.154 41.7585C92.1716 41.7717 92.2288 42.0253 92.2861 42.3228C92.3917 42.8782 92.3609 42.9745 92.088 42.9788ZM83.6338 43.1232C83.4357 43.32 83.3873 43.215 83.4401 42.7033C83.5105 41.9991 83.5766 41.7148 83.6558 41.7148C83.7658 41.7148 83.7394 43.0138 83.6294 43.1232H83.6338ZM81.979 30.0062C82.2651 30.0718 82.4939 30.1462 82.4895 30.1637C82.4895 30.1855 82.4587 30.3342 82.4279 30.4961L82.3707 30.7935H81.8734C81.4113 30.7935 80.9888 30.9422 81.112 31.0646C81.1384 31.0909 81.3717 31.1478 81.6313 31.1959C82.1903 31.2965 82.2211 31.3227 82.1682 31.6026C82.133 31.7732 82.0802 31.8213 81.9174 31.8213C81.6269 31.8213 81.112 31.97 81.112 32.0575C81.112 32.1319 81.222 32.1712 81.6489 32.2587C81.9526 32.3199 81.9966 32.3724 81.935 32.5998C81.8954 32.7442 81.8338 32.7704 81.5213 32.7704C81.2088 32.7704 81.0988 32.7179 80.804 32.4643L80.4563 32.1581L80.6367 31.4977C80.7335 31.1346 80.8788 30.6579 80.9624 30.4392C81.1428 29.9406 81.4377 28.9477 81.4377 28.8296C81.4377 28.6503 81.2661 28.7465 80.7775 29.197C80.1658 29.7613 79.3296 30.4042 79.2064 30.4042C79.158 30.4042 79.1316 30.343 79.158 30.2643C79.18 30.1899 79.2944 29.77 79.4132 29.3326C79.5981 28.6372 79.8313 27.9461 79.8797 27.9461C79.981 27.9461 82.5687 29.0527 82.6876 29.1489C82.7536 29.2014 82.758 29.2889 82.7052 29.4376C82.6392 29.63 82.5951 29.6475 82.3311 29.6257C81.9834 29.5951 81.5257 29.6913 81.4993 29.8094C81.4905 29.8531 81.7106 29.945 81.9966 30.0106L81.979 30.0062ZM81.7414 33.3259C81.7414 33.3696 81.7238 33.4046 81.7062 33.4046C81.6885 33.4046 81.6489 33.3696 81.6225 33.3259C81.5961 33.2822 81.6093 33.2472 81.6577 33.2472C81.7062 33.2472 81.7414 33.2822 81.7414 33.3259ZM77.4856 53.2922C76.9619 53.594 76.2358 53.7471 76.0201 53.5984C75.9453 53.5459 76.0905 53.4847 76.4998 53.3841C76.8211 53.3053 77.2744 53.1741 77.5076 53.091C77.7409 53.0079 77.9433 52.9511 77.9609 52.9686C77.9785 52.986 77.7629 53.1304 77.4856 53.2922ZM77.9609 41.8635C78.0709 42.3009 78.5286 43.0882 78.8939 43.4599C79.268 43.8448 79.5893 44.3872 79.5893 44.654C79.5893 44.7677 79.5497 44.7721 79.1756 44.6759C78.6607 44.5446 78.6211 44.5446 78.4318 44.6759C78.2866 44.7808 78.3218 44.8289 79.0084 45.5287C79.6113 46.1411 79.7609 46.3466 79.8885 46.7228C79.9722 46.9721 80.0294 47.1777 80.0162 47.1777C80.003 47.1777 79.7477 46.9721 79.4529 46.7184C78.7619 46.128 78.5859 46.023 78.1986 45.9574C78.0226 45.9268 77.8157 45.8874 77.7409 45.8655C77.4812 45.7912 77.6 46.0186 78.0709 46.5041C78.511 46.959 78.5419 47.0158 78.5991 47.4882C78.6563 47.9824 78.6035 48.7872 78.489 49.2158L78.4274 49.4389L78.269 49.0846C78.181 48.8878 78.027 48.5204 77.9213 48.2667C77.7453 47.8469 77.6793 47.7769 77.1863 47.4838C76.8783 47.3001 76.6142 47.1952 76.579 47.2345C76.5438 47.2739 76.6539 47.7681 76.8211 48.3323C77.2128 49.6401 77.314 50.5017 77.1203 50.821C76.7155 51.4815 76.557 51.7045 76.5174 51.6695C76.4954 51.6477 76.4294 51.359 76.3722 51.0353C76.2974 50.598 76.1961 50.3443 76.0025 50.0644C75.8573 49.8588 75.712 49.6488 75.6812 49.6051C75.5624 49.4302 75.4392 49.732 75.1531 50.8691C74.9243 51.7876 74.823 52.0588 74.6866 52.1507C74.5238 52.2556 74.5062 52.2469 74.3785 52.0019C74.2069 51.6739 74.1189 51.6127 73.868 51.6739C73.604 51.7351 73.4235 51.897 73.3091 52.1813C73.2035 52.4393 73.1067 52.4612 72.8822 52.295C72.7986 52.2338 72.1164 51.8051 71.3683 51.3503C70.158 50.6155 69.9688 50.4667 69.6783 50.0644C69.4979 49.8151 69.159 49.3908 68.9213 49.1284L68.4901 48.6473L68.5605 47.9168L68.6309 47.1864L68.2656 46.5172L67.9003 45.848L68.16 45.38L68.4196 44.912L68.0103 44.5534C67.6187 44.2122 67.5966 44.1685 67.5042 43.6305C67.4162 43.1188 67.425 43.0051 67.5747 42.454C67.6671 42.1172 67.7419 41.7104 67.7419 41.553C67.7419 41.2993 67.7111 41.2512 67.4998 41.1768L67.2578 41.0937L67.3106 40.5689C67.3458 40.219 67.5468 39.8676 67.9135 39.5148C68.2172 39.2218 68.4637 38.9637 68.4637 38.9418C68.4637 38.92 68.3712 38.71 68.2568 38.4782L68.05 38.054L68.3536 37.5991C68.5473 37.3104 68.6661 37.0349 68.6749 36.8555C68.6837 36.6981 68.8553 36.2213 69.0578 35.7971C69.3482 35.1804 69.4803 34.9879 69.7223 34.8392C69.8852 34.7343 70.1888 34.5024 70.4001 34.3187C70.7257 34.0301 70.7785 33.9426 70.7785 33.6845C70.7785 33.4265 70.827 33.3434 71.091 33.1378C71.2627 33.0022 71.6235 32.8098 71.8964 32.7092C72.1693 32.6086 72.4245 32.4643 72.4641 32.3943C72.5873 32.1712 72.8822 32.2324 72.9834 32.4992C73.0318 32.6305 73.1287 32.7354 73.1947 32.7354C73.2607 32.7354 73.4851 32.508 73.692 32.2281C74.0441 31.7513 74.0925 31.7163 74.449 31.6682C74.8538 31.6114 76.3502 31.7382 77.0499 31.8825C77.3976 31.9569 77.5164 32.0313 77.7453 32.3068C77.8993 32.4905 78.0225 32.6698 78.0225 32.7004C78.0225 32.7311 77.7805 32.7311 77.4812 32.7004C76.9619 32.648 76.9267 32.6567 76.6978 32.8666C76.4558 33.0853 75.8793 34.4237 75.9805 34.5243C76.0069 34.5506 76.1785 34.4412 76.3634 34.2838C76.623 34.0651 76.7683 33.9995 77.0015 33.9995C77.7541 33.9995 78.4362 34.2838 79.6729 35.1191C80.0558 35.3772 80.1394 35.3947 80.2054 35.2197C80.3287 34.9005 80.2494 34.7999 79.6377 34.4675C79.0964 34.1744 78.1986 33.4046 78.2954 33.3084C78.313 33.2909 78.4846 33.3172 78.6739 33.3653C78.9775 33.4484 79.0304 33.4396 79.1008 33.3215C79.1448 33.2472 79.246 33.1028 79.3252 32.9979L79.4704 32.8098L79.7829 32.9672C79.9546 33.0547 80.0954 33.1422 80.0954 33.1597C80.0954 33.1772 79.9546 33.234 79.7873 33.2778C79.5497 33.3434 79.4661 33.409 79.422 33.5752C79.378 33.7545 79.4132 33.8245 79.6729 34.0432C79.8401 34.1832 80.069 34.3537 80.1834 34.4193C80.3814 34.5374 80.4035 34.5331 80.7115 34.2663C80.8876 34.1132 81.0636 33.9907 81.1032 33.9907C81.1428 33.9907 81.2748 34.1176 81.3981 34.275C81.6181 34.5506 81.6225 34.5768 81.5345 34.9661C81.4025 35.5522 81.3365 35.6396 81.1472 35.469C81.0636 35.3947 80.9624 35.3335 80.9184 35.3335C80.8436 35.3335 80.6543 35.6659 80.6543 35.7971C80.6543 35.9283 82.0186 37.0086 82.1287 36.9649C82.2167 36.9299 82.2431 36.7724 82.2431 36.3263C82.2431 35.6615 82.3399 35.5609 82.5379 36.0289C82.7272 36.4794 82.6348 37.739 82.3707 38.312C82.0714 38.9593 81.7502 38.85 81.6489 38.0758C81.6049 37.7347 81.5257 37.5553 81.2749 37.2404C81.0988 37.0217 80.9228 36.8424 80.8832 36.8424C80.5663 36.8424 81.2881 39.4011 81.9878 40.7438C82.4235 41.5836 82.5776 41.7279 82.626 41.3474C82.6744 40.9756 83.1981 38.3164 83.2333 38.2858C83.2773 38.242 83.3257 38.4345 83.4401 39.0643C83.5414 39.6373 83.5546 39.576 82.9296 41.3124C82.7712 41.7454 82.6436 42.1128 82.6436 42.1216C82.6436 42.1303 82.6084 42.1434 82.5643 42.1434C82.5203 42.1434 82.2563 41.7979 81.9702 41.3737C81.6841 40.9494 81.2352 40.3721 80.9668 40.0878C80.6411 39.7466 80.3418 39.3092 80.0734 38.7887C79.6685 38.0102 78.8455 36.9999 78.6123 36.9999C78.4803 36.9999 77.5208 38.3995 77.5824 38.5001C77.6089 38.5394 77.9125 38.5963 78.2646 38.6269L78.9027 38.6838L79.7609 40.1184C80.8172 41.8766 81.715 43.3987 81.825 43.613C81.8778 43.7136 81.8866 44.0023 81.8558 44.3653L81.803 44.9558L81.6269 44.4965C81.5301 44.2429 81.2837 43.7792 81.0812 43.4687C80.6455 42.7951 79.1756 40.8357 79.0524 40.757C79.004 40.7263 78.7355 40.9275 78.4538 41.2075C78.0313 41.623 77.9477 41.7454 77.9873 41.8985L77.9609 41.8635ZM95.0851 48.2361L94.4558 47.9606L93.932 48.3148C93.6416 48.5073 93.0122 48.9403 92.5325 49.2727C90.7369 50.5149 90.5741 50.6242 90.2836 50.7992C89.8435 51.0616 89.6191 51.0222 89.4298 50.6679C89.3198 50.458 89.3242 50.4449 89.5311 50.3399C89.7247 50.2437 89.5883 50.2262 88.2328 50.1824C87.401 50.1562 85.7683 50.13 84.6064 50.1212L82.4939 50.1125L82.1946 50.3137C82.0318 50.423 81.8954 50.4755 81.8954 50.4318C81.8954 50.3049 81.715 50.3399 81.4993 50.5061C81.3893 50.5892 81.2749 50.6636 81.2396 50.6636C81.0724 50.6679 81.2572 50.4011 82.0582 49.5089C82.6832 48.8091 83.0044 48.3761 83.1717 48.0043C83.4797 47.3264 83.4753 47.217 83.1321 47.0727C82.978 47.0071 82.8548 46.9327 82.8548 46.9065C82.8548 46.8146 83.3477 46.1455 83.4401 46.1105C83.5326 46.0755 89.8391 45.1832 90.6577 45.087C90.8998 45.0608 91.3443 44.9864 91.6523 44.9295C91.9604 44.8683 92.4005 44.8114 92.6338 44.8027L93.0562 44.7808L93.4391 45.5025C93.8924 46.3554 94.5614 47.2608 95.2567 47.9649C95.5296 48.2449 95.7452 48.481 95.732 48.4942C95.7188 48.5073 95.4284 48.3936 95.0807 48.2405L95.0851 48.2361ZM95.9037 42.5065C95.754 42.5065 95.7056 42.3534 95.6264 41.7017C95.578 41.2906 95.5868 41.2556 95.7496 41.2031C95.8465 41.1725 95.9477 41.1725 95.9741 41.2031C96.0005 41.2293 96.0269 41.5355 96.0313 41.881C96.0313 42.419 96.0181 42.5108 95.9037 42.5108V42.5065ZM102.813 43.1013C102.426 44.2647 101.775 45.0433 100.802 45.4938C100.124 45.8087 99.1076 45.8349 98.4034 45.5594C97.642 45.2619 96.6254 44.4484 96.7531 44.2385C96.8279 44.1204 96.9159 44.1554 97.4 44.4834C98.0558 44.9295 98.7599 45.1001 99.4464 44.9864C99.7325 44.9383 100.129 44.8158 100.331 44.7152C100.859 44.4528 101.449 43.8317 101.744 43.2281C101.959 42.782 101.999 42.5983 102.03 41.9466C102.061 41.2424 101.986 40.7832 101.757 40.2365C101.731 40.1752 101.849 40.079 102.061 39.9915C102.76 39.6941 102.725 39.6854 102.892 40.2365C103.126 41.0106 103.09 42.2878 102.822 43.1057L102.813 43.1013ZM104.349 34.3275C104.926 34.4237 105.854 35.1935 106.07 35.749C106.145 35.9414 106.184 36.1207 106.162 36.1426C106.14 36.1645 105.92 35.9589 105.674 35.6877C105.432 35.4122 105.044 35.0448 104.82 34.8742C103.997 34.24 104.032 34.275 104.349 34.3319V34.3275ZM105.889 44.8202C105.863 44.7458 105.687 44.3347 105.502 43.9104C105.313 43.4862 105.19 43.1407 105.225 43.1407C105.313 43.1407 105.727 43.6786 105.841 43.9498C105.894 44.0679 105.96 44.3435 105.986 44.5621C106.039 44.9514 105.982 45.1001 105.885 44.8246L105.889 44.8202ZM106.761 42.3403C106.726 42.3403 106.576 42.0953 106.431 41.7979C106.286 41.5005 105.951 41.0238 105.687 40.7351C105.423 40.4464 105.247 40.2059 105.3 40.2059C105.498 40.2059 105.859 40.4552 106.176 40.8182C106.594 41.2906 106.699 41.4917 106.77 41.9685C106.8 42.1741 106.796 42.3403 106.761 42.3403ZM106.198 38.417C105.837 38.0102 105.322 37.5291 105.058 37.341C104.547 36.9824 104.543 36.9036 105.044 37.0349C105.458 37.1442 106.686 38.2726 106.814 38.6619C106.994 39.2043 106.844 39.143 106.193 38.4126L106.198 38.417Z" fill="white"/>
<path d="M77.0996 24.0009C77.1657 24.0273 77.4699 24.1243 77.7786 24.2213C78.9117 24.5741 80.0097 25.2222 83.2416 27.4533C85.0582 28.7099 86.6279 29.7329 86.7911 29.777C86.8925 29.8034 87.1306 29.7902 87.3202 29.7549C87.7082 29.6756 87.717 29.6403 87.5891 28.8334L87.5274 28.4542H87.8361C88.083 28.4542 88.3034 28.56 88.9031 28.9525C89.322 29.2258 90.0319 29.6932 90.4904 29.9886C91.2841 30.5045 91.4561 30.5927 91.4561 30.4736C91.4561 30.4428 91.3282 30.0504 91.1694 29.6006L90.8828 28.7849L89.1147 28.0486C87.5054 27.3784 86.1694 26.8228 84.9965 26.3378C84.754 26.2408 84.1102 25.9718 83.5591 25.7425C80.0141 24.2742 79.5996 24.1376 78.2944 23.9788C77.5537 23.8906 76.8526 23.8995 77.0996 23.9965V24.0009Z" fill="white"/>
<path d="M100.839 34.927C101.033 34.4243 101.099 34.1642 101.042 34.1245C100.993 34.0936 99.8512 33.9878 98.4976 33.8864C97.1483 33.785 95.1157 33.6351 93.9825 33.5513C92.8493 33.4675 91.8396 33.397 91.7338 33.397H91.5398L91.7162 33.2118C91.8132 33.1104 91.919 33.0398 91.9543 33.0575C91.9851 33.0751 92.1439 32.9869 92.2982 32.8679C92.5716 32.6606 92.6201 32.6518 93.3961 32.6694C93.8414 32.6783 95.1774 32.74 96.3635 32.8017C97.5496 32.8635 98.674 32.9164 98.8636 32.9164C99.1722 32.9164 99.2207 32.9428 99.3001 33.1545C99.3486 33.2867 99.4367 33.3926 99.4897 33.3926C99.5778 33.3926 100.072 32.4446 100.072 32.277C100.072 32.2417 99.741 32.1888 99.3353 32.1624C97.7701 32.061 92.4084 31.8714 92.3379 31.9111C92.2982 31.9375 92.2056 32.1359 92.1306 32.3608C91.9631 32.8723 91.8881 32.815 92.0072 32.2682C92.0557 32.0389 92.0689 31.8229 92.0336 31.7876C91.9984 31.7523 91.5089 31.6862 90.9401 31.6377C89.8687 31.5451 89.7805 31.5627 89.7761 31.8758C89.7761 31.9419 89.7012 32.7312 89.613 33.6307C89.2514 37.3344 89.2646 37.0831 89.419 37.1933C89.4939 37.2506 89.5909 37.3036 89.6306 37.3168C89.6703 37.33 89.6482 37.6034 89.5777 37.9253C89.3969 38.7939 89.4057 38.8556 89.7497 38.9614C89.9481 39.0232 90.0759 39.0276 90.1421 38.9703C90.195 38.9262 90.464 38.5073 90.7373 38.0443C91.3061 37.0787 91.3237 37.2727 90.583 36.2189L90.1553 35.6104L90.3361 34.6801C90.5521 33.5645 90.6095 33.3882 90.7682 33.3882C90.9225 33.3882 90.9225 33.419 90.6932 34.4552C90.5874 34.9314 90.5257 35.3811 90.5521 35.4517C90.6623 35.7515 91.3811 36.8979 91.456 36.8979C91.5001 36.8979 91.7515 36.4526 92.0116 35.9058L92.4878 34.9138L93.2241 34.9623C93.6298 34.9887 94.6615 35.0681 95.5169 35.1386L97.0734 35.2665L97.1307 35.584C97.166 35.7736 97.1528 35.972 97.0999 36.0778C97.0249 36.2321 97.1307 36.4482 97.9552 37.815C98.2815 38.3574 98.5637 38.8468 98.718 39.1378L100.561 35.6677C100.596 35.5531 100.702 35.2577 100.834 34.9182L100.839 34.927Z" fill="white"/>
<path d="M73.5457 37.9385C72.4698 38.4323 71.4337 40.4077 71.1823 42.4492C70.909 44.667 71.4601 46.7173 72.5051 47.3743C72.6947 47.4933 72.8623 47.5198 73.2723 47.5022C73.7265 47.4801 73.8455 47.4404 74.1983 47.1803C74.6039 46.8849 75.0889 46.2808 75.0007 46.1882C74.9743 46.1617 74.8464 46.1838 74.7141 46.2367C74.4011 46.369 74.1101 46.2279 73.8147 45.8002C72.7123 44.2085 73.5722 39.6978 74.9787 39.6978C75.4681 39.6978 75.8164 40.1652 76.0678 41.1528C76.2001 41.682 76.3279 41.5453 76.2662 40.9456C76.0193 38.6175 74.8596 37.3344 73.5545 37.9341L73.5457 37.9385Z" fill="white"/>
<path d="M75.7282 41.6687C75.521 41.5408 75.2212 41.7922 74.9919 42.2904C74.8023 42.7093 74.6171 42.8416 74.4981 42.6476C74.4716 42.6035 74.379 42.5858 74.2952 42.6123C74.1806 42.6476 74.1409 42.6211 74.1409 42.5065C74.1409 42.3301 73.9425 42.1361 73.8323 42.2066C73.7926 42.2331 73.775 42.3874 73.797 42.5506C73.8279 42.7975 73.797 42.8813 73.6295 43.0444C73.3649 43.2913 73.3693 43.3575 73.6559 43.4589C73.7838 43.503 73.9073 43.6176 73.9337 43.7146C73.9646 43.8292 74.1586 43.9792 74.4805 44.1423C75.0933 44.4509 75.4813 44.4774 75.7194 44.2261C76.2706 43.6396 76.275 42.0038 75.7239 41.6687H75.7282Z" fill="white"/>
<path d="M74.6127 35.5928C74.2468 35.3899 74.1012 35.3547 73.5854 35.3547C73.0695 35.3547 72.924 35.3899 72.5492 35.5928C71.9099 35.9411 71.2132 36.6819 70.7767 37.4755C70.5694 37.8503 70.3799 38.2604 70.3446 38.3882C70.3137 38.5161 70.2388 38.7233 70.177 38.8424C69.9169 39.3583 69.7273 40.5929 69.7185 41.8539C69.714 42.5329 69.7405 43.2604 69.7758 43.4677C69.811 43.6749 69.8684 43.8469 69.9037 43.8469C69.9389 43.8469 70.0051 43.406 70.0536 42.868C70.1506 41.8054 70.3534 40.9368 70.7105 40.0417C71.3763 38.375 72.6903 37.1448 73.8102 37.1448C74.8464 37.1448 75.8561 38.0796 76.3764 39.517C76.4734 39.7904 76.5881 40.0152 76.6233 40.0152C76.8747 40.0152 76.4293 38.0531 75.9752 37.1448C75.596 36.3908 75.1551 35.8882 74.6083 35.5884L74.6127 35.5928Z" fill="white"/>
<path d="M51.3893 41.3248C49.9871 42.3521 49.2861 47.0789 50.0974 50.0683C50.3795 51.1045 50.869 51.9114 51.332 52.0966C51.5921 52.198 52.0683 52.0789 52.3064 51.8541C52.6503 51.5278 53.0031 50.9943 53.0604 50.7165L53.1089 50.474L52.7517 50.8311C52.2711 51.3117 51.9933 51.3205 51.5656 50.8708C51.332 50.6283 51.2041 50.377 51.0189 49.7949C50.2429 47.3743 50.7279 43.4015 51.9272 42.3477C52.3417 41.9862 52.5577 42.0126 53.0207 42.4932C53.4792 42.9694 53.5278 42.846 53.1618 42.1141C52.6856 41.1661 52.0154 40.8662 51.3893 41.3248Z" fill="white"/>
<path d="M52.8619 46.5013C52.7649 46.7261 52.6503 46.779 52.5665 46.6423C52.5401 46.5983 52.4739 46.585 52.4166 46.6071C52.3593 46.6291 52.2711 46.5542 52.2182 46.4395C52.0991 46.175 51.9669 46.2543 51.9669 46.5938C51.9669 46.7393 51.9139 46.9025 51.8478 46.9598C51.6803 47.1009 51.6979 47.2596 51.8919 47.3214C51.9845 47.3522 52.0815 47.4404 52.1124 47.5242C52.1432 47.608 52.3284 47.7623 52.5268 47.8725C52.7649 48.0048 52.9898 48.0665 53.2014 48.0577C53.466 48.0445 53.541 48.0004 53.6732 47.7755C53.8893 47.4096 53.9422 46.5409 53.7791 46.1441C53.563 45.6238 53.1794 45.7737 52.8663 46.5013H52.8619Z" fill="white"/>
<path d="M52.518 42.8945C52.0506 42.8945 51.6362 43.4986 51.2878 44.6891C51.085 45.3901 50.9042 46.7305 50.988 46.9422C51.0541 47.1186 51.1247 46.9598 51.3584 46.1221C51.6362 45.1212 52.0506 44.2437 52.3681 43.9748C52.6768 43.7146 52.787 43.7146 52.9854 43.9659C53.1221 44.1423 53.197 44.3848 53.369 45.1917C53.3955 45.3196 53.4351 45.3549 53.488 45.3019C53.6027 45.1873 53.4263 43.9748 53.2235 43.503C53.0383 43.0709 52.8267 42.8901 52.518 42.8901V42.8945Z" fill="white"/>
<path d="M73.7882 18.2424C73.4796 18.2027 72.3685 18.0396 71.3146 17.8853C70.2608 17.7309 69.3746 17.6031 69.3393 17.6031C69.2291 17.6031 69.3305 18.7318 69.4804 19.1772C69.5245 19.305 69.9169 19.305 72.364 19.1595C77.5184 18.8509 77.2759 18.8729 77.1613 18.7539C77.1216 18.7142 75.7856 18.5114 73.7926 18.2424H73.7882Z" fill="white"/>
<path d="M104.984 26.5847C104.719 26.8096 103.881 27.3784 102.188 28.5071C101.134 29.2082 100.235 29.8035 100.182 29.8343C100.12 29.8696 100.072 29.7594 100.041 29.508C100.014 29.3008 99.8998 28.5556 99.7939 27.8546C99.6881 27.1535 99.5073 25.9851 99.3971 25.2619C99.1855 23.8642 99.1325 23.7452 98.6563 23.6173C98.6299 23.6085 98.599 23.5997 98.5682 23.582C98.502 23.5556 98.4403 23.5247 98.4094 23.4983C98.4094 23.4983 98.3786 23.4938 98.3124 23.4806C98.2331 23.4718 98.1493 23.463 98.0699 23.4497C98.0699 23.4586 98.0787 23.4718 98.0831 23.485V23.4938C98.1801 23.6614 98.2198 24.1596 98.2507 24.7372C98.2683 24.9048 98.2771 25.0503 98.2727 25.1385C98.2727 25.1473 98.2727 25.1561 98.2683 25.1649C98.2683 25.1649 98.2639 25.1649 98.2639 25.1694C98.2639 25.1694 98.2507 25.1782 98.2463 25.1826C98.2419 25.1826 98.2331 25.1826 98.2242 25.1826C98.2242 25.1826 98.211 25.1826 98.2066 25.1826C98.1978 25.1826 98.189 25.1826 98.1802 25.1826C98.1669 25.1826 98.1537 25.1826 98.1361 25.1826C98.114 25.1826 98.0876 25.1826 98.0567 25.1826C98.0346 25.1826 98.0126 25.1826 97.9906 25.1826C97.9906 25.1826 97.9509 25.1826 97.9288 25.1826C97.9068 25.1826 97.8891 25.1826 97.8671 25.1826C97.8362 25.1826 97.8098 25.1826 97.7745 25.1782C97.7172 25.1782 97.651 25.1694 97.5849 25.1649C97.5849 25.1649 97.5849 25.1649 97.5805 25.1649C97.5452 25.1649 97.5143 25.1605 97.4747 25.1561C97.3953 25.1517 97.3027 25.1429 97.2101 25.1341C97.2057 25.1341 97.2013 25.1341 97.1925 25.1341C97.1484 25.1341 97.1087 25.1253 97.0558 25.1253C96.9808 25.1209 96.9059 25.112 96.8221 25.1076C96.7383 25.0988 96.6502 25.0944 96.5576 25.0856C95.8918 25.0327 95.4288 25.0238 95.3847 25.0679C95.345 25.1076 95.27 25.4207 95.2171 25.7646C95.1422 26.2805 95.1422 26.4039 95.2348 26.4877C95.3097 26.5539 95.8565 26.62 96.853 26.6817C97.6819 26.7346 98.3918 26.792 98.4271 26.8184C98.4668 26.8405 98.4976 26.9286 98.4976 27.0168C98.4976 27.2152 98.6078 27.2196 95.0275 26.9727C90.7197 26.6729 91.1165 26.7258 90.927 26.4304C90.7153 26.0997 90.7373 26.0953 92.0513 26.2496C92.6333 26.3158 93.1272 26.3554 93.1492 26.329C93.2021 26.2761 92.9552 25.3193 92.8141 25.0283L92.7127 24.8166L91.3899 24.7946L90.0671 24.7725L89.3308 23.8378C88.2329 22.4488 88.202 22.5018 89.0442 24.2831C89.3705 24.9709 89.9569 26.2143 90.3449 27.0477C91.0328 28.5204 91.0592 28.5601 91.3282 28.6174C91.4781 28.6482 93.2021 28.7849 95.1554 28.926C97.1087 29.0627 98.7401 29.1862 98.7842 29.1994C98.8636 29.2259 99.1017 29.7946 99.0488 29.8431C99.0355 29.8564 97.7833 29.7858 96.271 29.6844C92.3247 29.4199 91.2444 29.3714 91.2444 29.464C91.2444 29.5874 91.6236 30.4208 91.703 30.4693C91.7735 30.5134 93.6254 30.628 96.4297 30.7603C97.3733 30.8044 98.3874 30.8617 98.6828 30.8881L99.2207 30.9366V30.6677C99.2207 30.3767 99.1678 30.2973 100.023 31.8361C100.424 32.5548 100.482 32.4314 100.323 31.2144C100.261 30.7382 100.253 30.4825 100.305 30.4649C100.35 30.4516 101.355 29.7946 102.536 29.0054C103.718 28.2161 104.728 27.5724 104.781 27.5724C104.829 27.5724 105.045 27.7355 105.261 27.9295L105.649 28.2867L105.208 28.6879C104.966 28.9084 104.089 29.6447 103.255 30.3238C102.197 31.1836 101.672 31.6642 101.522 31.9155C101.403 32.1139 101.337 32.2947 101.381 32.3211C101.447 32.3608 103.943 30.3105 105.945 28.5777C106.328 28.247 106.505 28.1368 106.637 28.031L105.014 26.5847H104.984Z" fill="white"/>
<path d="M59.4714 32.6783L60.4855 32.7665C60.8647 32.7973 61.2087 32.8414 61.3938 32.8723L62.505 32.9473C62.5535 32.9296 62.6284 32.9252 62.7342 32.9252C62.9106 32.9252 63.0517 32.8899 63.0517 32.8503C63.0517 32.8106 62.8357 32.4314 62.5711 32.0125L62.0905 31.2497L62.5755 30.5971C62.9635 30.0768 63.0561 29.8961 63.0341 29.6976L63.012 29.4507L61.0587 29.4728C58.4573 29.5036 53.0516 29.6536 53.0075 29.6932C52.9237 29.777 53.1353 29.8211 54.2861 29.9666C56.2174 30.2047 56.3232 30.2356 56.5966 30.6721C56.6936 30.8264 56.7465 30.9234 56.7774 30.9984L57.3285 31.5363C57.5137 31.6289 57.9149 31.8405 58.3691 32.083L59.467 32.6783H59.4714Z" fill="white"/>
<path d="M77.977 19.865C78.8324 19.6666 79.6922 19.4682 79.8906 19.4285C80.5343 19.2962 85.6887 19.5652 90.8608 20.0017C92.8802 20.1737 93.4181 20.2398 95.927 20.6366C96.7824 20.7733 98.1581 20.985 98.987 21.1128C99.8115 21.2363 100.508 21.3598 100.53 21.3774C100.552 21.3994 100.125 21.6508 99.5779 21.9418C99.1193 22.1843 98.696 22.3871 98.5329 22.4488L99.1325 22.9956C99.1325 22.9956 99.1502 22.9868 99.1678 22.9824C99.9262 22.7178 102.47 21.4744 102.792 21.2098C102.902 21.1217 102.973 21.0291 102.951 21.007C102.902 20.9585 100.64 20.6631 95.2921 19.9973C94.613 19.9135 93.3388 19.7548 92.4613 19.6446C90.0451 19.3403 88.8193 19.2213 86.7161 19.0846C85.6623 19.0184 83.7002 18.8862 82.3509 18.798L79.8994 18.6348L79.3174 18.8024C78.4973 19.0405 76.5396 19.7063 75.3976 20.134C75.0889 20.2486 74.8112 20.3412 74.5642 20.4118L75.0008 20.5485L75.6224 20.4074C76.0634 20.3104 77.1216 20.0634 77.977 19.865Z" fill="white"/>
<path d="M52.399 27.4842C52.7209 27.7179 52.7561 27.7752 52.8046 28.172C52.8355 28.4101 52.9016 28.6438 52.9501 28.6835C53.0339 28.7541 61.169 28.5953 62.0729 28.5071C62.333 28.4807 62.4124 28.5027 62.4124 28.5909C62.4124 28.6571 62.4565 28.6923 62.505 28.6747C62.5579 28.6571 62.6681 28.3837 62.7519 28.0662C62.7872 27.9295 62.8268 27.8105 62.8577 27.7135L60.9176 26.7919C60.5693 26.8272 59.542 26.8625 58.3206 26.889C53.3029 26.986 52.0374 27.0345 52.0374 27.1359C52.0374 27.1888 52.1962 27.3431 52.3902 27.4842H52.399Z" fill="white"/>
</svg>
