<?xml version="1.0" encoding="utf-8"?><svg viewBox="0 0 502.66 502.66" xmlns="http://www.w3.org/2000/svg" xmlns:xlink="http://www.w3.org/1999/xlink"><style>:root>svg{display:none}:root>svg:target{display:block}</style><svg viewBox="0 0 502.664 502.664" xml:space="preserve" id="icon" xmlns="http://www.w3.org/2000/svg"><path d="M153.821 358.226 0 274.337v-46.463l153.821-83.414v54.574L46.636 250.523l107.185 53.431v54.272zm26.273 29.358L282.103 115.08h32.227L212.084 387.584h-31.99zm168.749-29.358v-54.272l107.164-52.999-107.164-52.59v-53.927l153.821 83.522v46.183l-153.821 84.083z"/></svg><svg viewBox="0 0 164 164" id="icon__check" xmlns="http://www.w3.org/2000/svg"><path fill-rule="evenodd" clip-rule="evenodd" d="M163.666 82c0 45.103-36.563 81.667-81.666 81.667C36.897 163.667.333 127.103.333 82S36.897.333 82 .333 163.666 36.897 163.666 82Zm-48.752-24.748a6.125 6.125 0 0 1 0 8.663l-40.833 40.833a6.125 6.125 0 0 1-8.662 0L49.085 90.414a6.125 6.125 0 1 1 8.662-8.662L69.75 93.755 88 75.504l18.252-18.252a6.125 6.125 0 0 1 8.662 0Z"/></svg><svg viewBox="0 0 22 22" id="icon_add" xmlns="http://www.w3.org/2000/svg"><rect width="22" height="22" rx="11"/><path fill-rule="evenodd" clip-rule="evenodd" d="M11 4c.552 0 1 .209 1 .467v13.066c0 .258-.448.467-1 .467s-1-.209-1-.467V4.467c0-.258.448-.467 1-.467Z"/><path fill-rule="evenodd" clip-rule="evenodd" d="M4 11c0-.552.209-1 .467-1h13.066c.258 0 .467.448.467 1s-.209 1-.467 1H4.467C4.209 12 4 11.552 4 11Z"/></svg><svg viewBox="0 0 48 48" id="icon_adv1" xmlns="http://www.w3.org/2000/svg"><path fill-rule="evenodd" clip-rule="evenodd" d="M18.2 4.795a1.5 1.5 0 0 1-.86 1.94 18.67 18.67 0 0 0-.838.347 1.5 1.5 0 1 1-1.218-2.742 21.5 21.5 0 0 1 .976-.404 1.5 1.5 0 0 1 1.94.86Zm-6.905 3.686a1.5 1.5 0 0 1-.051 2.12c-.22.21-.434.423-.643.643a1.5 1.5 0 0 1-2.172-2.07c.242-.254.491-.503.746-.745a1.5 1.5 0 0 1 2.12.052ZM6.32 14.522a1.5 1.5 0 0 1 .762 1.98 18.67 18.67 0 0 0-.347.838 1.5 1.5 0 0 1-2.8-1.08c.128-.33.263-.655.405-.976a1.5 1.5 0 0 1 1.98-.762Zm-2.278 7.486a1.5 1.5 0 0 1 1.463 1.536 18.889 18.889 0 0 0 0 .912 1.5 1.5 0 1 1-2.999.073 21.859 21.859 0 0 1 0-1.058 1.5 1.5 0 0 1 1.536-1.463Zm39.163 7.793a1.5 1.5 0 0 1 .86 1.94c-.128.328-.263.654-.405.975a1.5 1.5 0 0 1-2.742-1.218c.122-.276.238-.555.347-.838a1.5 1.5 0 0 1 1.94-.86Zm-38.41 0a1.5 1.5 0 0 1 1.94.859c.109.283.225.562.347.838a1.5 1.5 0 1 1-2.742 1.218 21.368 21.368 0 0 1-.404-.976 1.5 1.5 0 0 1 .86-1.94Zm34.724 6.904a1.5 1.5 0 0 1 .052 2.12 21.59 21.59 0 0 1-.746.746 1.5 1.5 0 0 1-2.069-2.172c.22-.21.434-.423.643-.643a1.5 1.5 0 0 1 2.12-.051Zm-31.038 0a1.5 1.5 0 0 1 2.12.051c.21.22.423.434.643.643a1.5 1.5 0 0 1-2.07 2.172 21.564 21.564 0 0 1-.745-.746 1.5 1.5 0 0 1 .052-2.12Zm6.041 4.975a1.5 1.5 0 0 1 1.98-.762c.276.122.555.238.838.347a1.5 1.5 0 0 1-1.08 2.8c-.33-.128-.655-.263-.976-.405a1.5 1.5 0 0 1-.762-1.98Zm18.956 0a1.5 1.5 0 0 1-.762 1.98c-.321.142-.647.277-.976.404a1.5 1.5 0 0 1-1.08-2.799c.283-.109.562-.225.838-.347a1.5 1.5 0 0 1 1.98.762Zm-11.47 2.278a1.5 1.5 0 0 1 1.536-1.463 18.685 18.685 0 0 0 .912 0 1.5 1.5 0 1 1 .073 2.999 21.605 21.605 0 0 1-1.058 0 1.5 1.5 0 0 1-1.463-1.536ZM24 5.5c10.217 0 18.5 8.283 18.5 18.5a1.5 1.5 0 0 0 3 0c0-11.874-9.626-21.5-21.5-21.5a1.5 1.5 0 0 0 0 3Zm0 11a1.5 1.5 0 0 1 1.5 1.5v6.5H32a1.5 1.5 0 0 1 0 3h-8a1.5 1.5 0 0 1-1.5-1.5v-8a1.5 1.5 0 0 1 1.5-1.5Z"/></svg><svg viewBox="0 0 48 48" id="icon_adv2" xmlns="http://www.w3.org/2000/svg"><path d="M4 8a4 4 0 1 1 5.5 3.71V22.5h13V11.71a4.001 4.001 0 1 1 3 0V22.5H32c1.928 0 3.223-.003 4.19-.133.922-.124 1.317-.339 1.578-.6.26-.26.475-.655.599-1.578.13-.966.133-2.261.133-4.189v-4.29a4.001 4.001 0 1 1 3 0v4.394c0 1.797 0 3.295-.16 4.485-.169 1.256-.54 2.39-1.45 3.3-.912.911-2.046 1.282-3.301 1.451-1.19.16-2.688.16-4.485.16H25.5v10.79a4.001 4.001 0 1 1-3 0V25.5h-13v10.79a4.001 4.001 0 1 1-3 0V11.71A4.001 4.001 0 0 1 4 8Z"/><path fill-rule="evenodd" clip-rule="evenodd" d="M34.5 30a1.5 1.5 0 0 1 1.5-1.5h4.571c2.751 0 4.929 2.268 4.929 5 0 2.157-1.357 4.025-3.283 4.715l3.062 5.002a1.5 1.5 0 0 1-2.558 1.566L38.874 38.5H37.5V44a1.5 1.5 0 0 1-3 0V30Zm3 5.5h3.071c1.037 0 1.929-.866 1.929-2s-.892-2-1.929-2H37.5v4Z"/></svg><svg viewBox="0 0 48 48" id="icon_adv3" xmlns="http://www.w3.org/2000/svg"><path fill-rule="evenodd" clip-rule="evenodd" d="M37 28c-3.866 0-7 2.917-7 6.515 0 3.57 2.234 7.735 5.72 9.225a3.277 3.277 0 0 0 2.56 0c3.486-1.49 5.72-5.656 5.72-9.225C44 30.917 40.866 28 37 28Zm0 9a2 2 0 1 0 0-4 2 2 0 0 0 0 4ZM11 4c-3.866 0-7 2.917-7 6.515 0 3.57 2.234 7.735 5.72 9.225a3.277 3.277 0 0 0 2.56 0c3.486-1.49 5.72-5.656 5.72-9.225C18 6.917 14.866 4 11 4Zm0 9a2 2 0 1 0 0-4 2 2 0 0 0 0 4Zm11.5-3A1.5 1.5 0 0 1 24 8.5h8.264c5.502 0 7.595 7.186 2.953 10.14L14.394 31.89c-2.11 1.344-1.159 4.61 1.342 4.61h4.643l-.44-.44a1.5 1.5 0 0 1 2.122-2.12l3 3a1.5 1.5 0 0 1 0 2.12l-3 3a1.5 1.5 0 0 1-2.122-2.12l.44-.44h-4.643c-5.502 0-7.595-7.186-2.953-10.14l20.823-13.25c2.11-1.344 1.159-4.61-1.342-4.61H24a1.5 1.5 0 0 1-1.5-1.5Z"/></svg><svg viewBox="0 0 48 48" id="icon_adv4" xmlns="http://www.w3.org/2000/svg"><path d="M24 20a8 8 0 1 0 0-16 8 8 0 0 0 0 16Z"/><path d="M5.456 11.636a1.5 1.5 0 1 0-2.91.728l.763 3.055A16.418 16.418 0 0 0 14.5 27.157v8.947c0 1.797 0 3.295.16 4.485.169 1.255.54 2.389 1.451 3.3.911.91 2.045 1.282 3.3 1.451 1.19.16 2.688.16 4.485.16h.208c1.797 0 3.296 0 4.485-.16 1.256-.169 2.39-.54 3.3-1.451.911-.911 1.283-2.045 1.451-3.3.16-1.19.16-2.688.16-4.485v-8.386a5.25 5.25 0 0 1 3.712 4.416l1.299 11.041a1.5 1.5 0 1 0 2.98-.35l-1.3-11.042a8.247 8.247 0 0 0-8.19-7.283H16.168a13.418 13.418 0 0 1-9.95-9.808l-.763-3.056Z"/></svg><svg viewBox="0 0 48 48" id="icon_adv5" xmlns="http://www.w3.org/2000/svg"><circle cx="24" cy="12" r="8"/><path fill-rule="evenodd" clip-rule="evenodd" d="M33 44c-3.3 0-4.95 0-5.975-1.025C26 41.95 26 40.3 26 37s0-4.95 1.025-5.975C28.05 30 29.7 30 33 30s4.95 0 5.975 1.025C40 32.05 40 33.7 40 37s0 4.95-1.025 5.975C37.95 44 36.3 44 33 44Zm3.936-8.508a1.167 1.167 0 0 0-1.65-1.65l-3.842 3.841-.73-.73a1.167 1.167 0 0 0-1.65 1.65l1.555 1.555a1.167 1.167 0 0 0 1.65 0l4.667-4.666Z"/><path d="M30.83 27.015C28.81 26.369 26.48 26 24 26c-7.732 0-14 3.582-14 8 0 4.281 5.885 7.777 13.284 7.99a9.74 9.74 0 0 1-.13-.75C23 40.085 23 38.673 23 37.172v-.344c0-1.501 0-2.913.155-4.068.173-1.286.586-2.693 1.749-3.856 1.163-1.163 2.57-1.576 3.856-1.75a19.268 19.268 0 0 1 2.07-.14Z"/></svg><svg viewBox="0 0 48 48" id="icon_adv6" xmlns="http://www.w3.org/2000/svg"><path d="M22.5 4.147c-1.212.226-2.637.714-4.825 1.463l-1.145.392c-6.013 2.058-9.02 3.087-9.775 4.163C6.016 11.217 6 14.3 6 20.419l16.5-5.5V4.147Zm0 13.934L6 23.581v.402c0 11.276 8.478 16.748 13.797 19.072 1.022.446 1.681.734 2.703.864V18.081Zm3 25.839V18.08l16.5 5.5v.402c0 11.276-8.478 16.748-13.797 19.072-1.022.446-1.681.734-2.703.864Zm0-29.001V4.147c1.212.226 2.637.714 4.825 1.463l1.145.392c6.013 2.058 9.02 3.087 9.775 4.163.739 1.052.755 4.135.755 10.254l-16.5-5.5Z"/></svg><svg viewBox="0 0 18 19" id="icon_arrow" xmlns="http://www.w3.org/2000/svg"><path d="M17.827 8.14H4.398l6.168-6.169L9 .415.172 9.243l8.827 8.827 1.556-1.555-6.157-6.169h13.429V8.14Z"/></svg><svg viewBox="0 0 20 20" id="icon_clock" xmlns="http://www.w3.org/2000/svg"><rect width="20" height="20" rx="10"/><path d="M10 16a6 6 0 1 0 0-12 6 6 0 0 0 0 12Z"/><path d="M10 7v3l1 2"/></svg><svg viewBox="0 0 22 22" id="icon_date" xmlns="http://www.w3.org/2000/svg"><rect width="22" height="22" rx="11"/><path d="M16.833 12.167V11c0-.49 0-.924-.007-1.312H5.174c-.007.388-.007.823-.007 1.312v1.167c0 2.2 0 3.3.683 3.983.684.683 1.784.683 3.983.683h2.334c2.2 0 3.3 0 3.983-.683.683-.683.683-1.783.683-3.983ZM8.52 5.458a.437.437 0 1 0-.874 0v.922c-.84.067-1.39.232-1.796.637-.405.405-.57.956-.637 1.796h11.574c-.067-.84-.232-1.391-.637-1.796s-.956-.57-1.796-.637v-.922a.437.437 0 1 0-.875 0v.883c-.388-.008-.823-.008-1.312-.008H9.833c-.489 0-.924 0-1.312.008v-.883Z"/></svg><svg viewBox="0 0 22 22" id="icon_person" xmlns="http://www.w3.org/2000/svg"><rect width="22" height="22" rx="11"/><circle cx="11" cy="7.5" r="2.333"/><path d="M15.667 14.208c0 1.45 0 2.625-4.667 2.625s-4.667-1.175-4.667-2.625 2.09-2.625 4.667-2.625c2.578 0 4.667 1.176 4.667 2.625Z"/></svg><svg viewBox="0 0 20 20" id="icon_rub" xmlns="http://www.w3.org/2000/svg"><path d="M11.5 9.25H8.75V6.2a8.157 8.157 0 0 1 .003-.24.25.25 0 0 1 .206-.207 8.21 8.21 0 0 1 .24-.003H11.5a1.75 1.75 0 1 1 0 3.5Z"/><path fill-rule="evenodd" clip-rule="evenodd" d="M20 10c0 5.523-4.477 10-10 10S0 15.523 0 10 4.477 0 10 0s10 4.477 10 10ZM6.25 12a.75.75 0 0 1 .75-.75h.25v-.5H7a.75.75 0 0 1 0-1.5h.25V6.162c0-.146 0-.297.022-.436a1.75 1.75 0 0 1 1.454-1.454c.139-.022.29-.022.435-.022H11.5a3.25 3.25 0 0 1 0 6.5H8.75v.5H10a.75.75 0 0 1 0 1.5H8.75V15a.75.75 0 0 1-1.5 0v-2.25H7a.75.75 0 0 1-.75-.75Z"/></svg><svg viewBox="0 0 23 19" id="icon_tg" xmlns="http://www.w3.org/2000/svg"><path d="M1.04 7.677 20.83.093c.918-.33 1.72.223 1.423 1.603l.001-.002-3.37 15.78c-.249 1.119-.918 1.39-1.854.863l-5.13-3.759-2.475 2.37c-.274.272-.505.502-1.035.502l.364-5.19 9.51-8.54c.415-.363-.092-.567-.637-.206L5.873 10.869.806 9.298c-1.1-.347-1.123-1.094.233-1.62Z"/></svg><svg viewBox="0 0 26 26" id="icon_wa" xmlns="http://www.w3.org/2000/svg"><path d="M21.694 4.555A12.17 12.17 0 0 0 2.2 18.633L.908 24.9a.464.464 0 0 0 .074.364.47.47 0 0 0 .5.194l6.143-1.456a12.166 12.166 0 0 0 14.07-19.448ZM19.78 19.844a9.532 9.532 0 0 1-10.977 1.784l-.856-.424-3.767.892.012-.047.78-3.79-.42-.828a9.527 9.527 0 1 1 15.228 2.413Z"/><path d="M19.444 17.063c-.462.727-1.19 1.617-2.107 1.838-1.606.388-4.07.013-7.137-2.846l-.037-.034c-2.697-2.5-3.397-4.58-3.227-6.23.093-.937.874-1.784 1.532-2.337a.876.876 0 0 1 1.371.314l.992 2.23a.871.871 0 0 1-.109.892l-.502.651a.862.862 0 0 0-.078.964c.281.493.955 1.217 1.702 1.889.838.758 1.768 1.451 2.357 1.688a.852.852 0 0 0 .934-.197l.582-.586a.893.893 0 0 1 .87-.223l2.357.669a.892.892 0 0 1 .5 1.318Z"/></svg><svg viewBox="0 0 22 23" id="icon_way" xmlns="http://www.w3.org/2000/svg"><rect y=".5" width="22" height="22" rx="11"/><path fill-rule="evenodd" clip-rule="evenodd" d="M14.792 12.667c-1.128 0-2.042.85-2.042 1.9 0 1.04.652 2.256 1.668 2.69a.95.95 0 0 0 .747 0c1.017-.434 1.668-1.65 1.668-2.69 0-1.05-.914-1.9-2.041-1.9Zm0 2.625a.583.583 0 1 0 0-1.167.583.583 0 0 0 0 1.167ZM7.208 5.667c-1.127 0-2.041.85-2.041 1.9 0 1.04.651 2.256 1.668 2.69a.95.95 0 0 0 .747 0c1.016-.434 1.668-1.65 1.668-2.69 0-1.05-.914-1.9-2.042-1.9Zm0 2.625a.583.583 0 1 0 0-1.167.583.583 0 0 0 0 1.167Zm3.355-.875c0-.242.195-.438.437-.438h2.41c1.605 0 2.216 2.096.861 2.958l-6.073 3.865c-.615.391-.338 1.344.392 1.344h1.354l-.128-.128a.438.438 0 0 1 .618-.62l.875.876a.438.438 0 0 1 0 .619l-.875.875a.438.438 0 0 1-.618-.62l.128-.127H8.59c-1.605 0-2.215-2.096-.862-2.958l6.074-3.865c.615-.391.338-1.344-.392-1.344H11a.438.438 0 0 1-.438-.437Z"/></svg><svg viewBox="0 0 22 22" id="icon_wheel" xmlns="http://www.w3.org/2000/svg"><rect width="22" height="22" rx="11"/><path fill-rule="evenodd" clip-rule="evenodd" d="M11 18.5a7.5 7.5 0 1 0 0-15 7.5 7.5 0 0 0 0 15Zm4.465-6.938H13.18a2.233 2.233 0 0 1-.603 1.043l1.144 1.98a4.496 4.496 0 0 0 1.745-3.023Zm-2.72 3.587-1.143-1.98a2.25 2.25 0 0 1-1.204 0l-1.144 1.98A4.486 4.486 0 0 0 11 15.5c.62 0 1.209-.125 1.746-.351Zm-4.465-.563 1.144-1.98a2.241 2.241 0 0 1-.603-1.044H6.535a4.496 4.496 0 0 0 1.745 3.024Zm7.185-4.149H13.18a2.248 2.248 0 0 0-.603-1.042l1.144-1.98a4.496 4.496 0 0 1 1.745 3.022Zm-2.72-3.586A4.486 4.486 0 0 0 11 6.5c-.62 0-1.209.125-1.746.351l1.144 1.98a2.251 2.251 0 0 1 1.204 0l1.144-1.98Zm-3.32 2.544L8.28 7.415a4.496 4.496 0 0 0-1.745 3.022H8.82c.103-.402.315-.76.603-1.042Z"/></svg><svg viewBox="0 0 24 24" id="minus" xmlns="http://www.w3.org/2000/svg"><path fill-rule="evenodd" clip-rule="evenodd" d="M4.5 12a.5.5 0 0 1 .5-.5h14a.5.5 0 0 1 0 1H5a.5.5 0 0 1-.5-.5Z"/></svg><svg viewBox="0 0 24 24" id="plus" xmlns="http://www.w3.org/2000/svg"><path fill-rule="evenodd" clip-rule="evenodd" d="M12 4.5a.5.5 0 0 1 .5.5v14a.5.5 0 0 1-1 0V5a.5.5 0 0 1 .5-.5Z"/><path fill-rule="evenodd" clip-rule="evenodd" d="M4.5 12a.5.5 0 0 1 .5-.5h14a.5.5 0 0 1 0 1H5a.5.5 0 0 1-.5-.5Z"/></svg></svg>